<?xml version="1.0" encoding="UTF-8"?>
<svg id="Layer_1" data-name="Layer 1" xmlns="http://www.w3.org/2000/svg" viewBox="0 0 417.80801 399.35536">
  <defs>
    <style>
      .cls-1 {
        fill: #fff;
      }

      .cls-2 {
        fill: #000;
      }

      .cls-3 {
        fill: #000;
      }

      .fadeIn {
        animation: fadeIn 1s forwards;
      }
      
      @keyframes fadeIn {
      from {opacity: 0; transform:translateY(-100px);}
      to { opacity: 1; transform:translateY(0px);}
      }

    .draw {
        clip-path: inset(0 100% 0 0);
        animation: revealClip 1s forwards;
      }

      @keyframes revealClip {
        to {
          clip-path: inset(0 0 0 0);
          opacity: 1;
        }
      }

    @keyframes draw {
      from {opacity: 0;}
      to { opacity: 1;}
      }
    </style>
  </defs>
  <g>
    <g>
      <path class="cls-1 draw" d="M71.76498,389.35585c-13.83301,0-25.08789-14.91797-25.08789-33.25488v-130.44141h324.4541v130.44141c0,18.33691-11.25488,33.25488-25.08887,33.25488H71.76498Z"/>
      <path class="cls-2 draw" d="M361.1307,235.65975v120.44171c0,13.70398-7.95166,23.25391-15.08813,23.25391H71.76528c-7.13647,0-15.08813-9.54993-15.08813-23.25391v-120.44171h304.45355M381.1307,215.65975H36.67715v140.44171c0,23.88855,15.70953,43.25391,35.08813,43.25391h274.27728c19.37878,0,35.08813-19.36536,35.08813-43.25391v-140.44171h0Z"/>
    </g>
    <g>
      <path class="cls-1 draw" d="M28.79525,240.33925c-7.86133,0-14.33984-4.34082-17.33008-11.61133-2.98926-7.27051-1.43848-14.91211,4.14844-20.44336L194.30013,31.40175c3.91211-3.87207,9.09863-6.00488,14.60352-6.00488s10.69141,2.13184,14.60352,6.00488l178.6875,176.88281c5.58691,5.53125,7.1377,13.17383,4.14746,20.44434-2.99023,7.26953-9.46777,11.61035-17.3291,11.61035H28.79525Z"/>
      <path class="cls-2 draw" d="M208.90401,35.39656c2.85303,0,5.54077,1.10535,7.56848,3.11267l178.68713,176.88245c3.62012,3.58356,2.76562,7.51099,1.93408,9.5332-.83167,2.02216-2.9873,5.41455-8.08118,5.41455H28.79543c-5.09387,0-7.24951-3.39233-8.08105-5.41455-.83173-2.02209-1.68628-5.94952,1.93396-9.53308L201.33529,38.50923c2.02783-2.0072,4.7157-3.11267,7.56873-3.11267M208.90401,15.39662c-7.82288,0-15.64563,2.96631-21.63879,8.89886L8.57815,201.17799c-18.24548,18.06122-5.45569,49.16144,20.21729,49.16144h360.2171c25.67285,0,38.46277-31.10022,20.21741-49.16144L230.54269,24.29549c-5.99304-5.93256-13.81592-8.89886-21.63867-8.89886h0Z"/>
    </g>
  </g>
  <path class="cls-3 fadeIn" d="M193.71985,150.9027c-2.87264,12.74725-8.92174,24.62136-24.81365,31.69506-12.18157,5.42219-.05081,29.71599,12.66088,23.41882,15.38645-7.62218,32.57972-8.61378,52.44273.05527,12.97852,5.66438,25.2107-18.36151,12.87708-23.31084-13.81546-5.54398-23.1921-15.66328-25.29332-32.1092-1.46317-11.45198-25.34178-10.98456-27.87372.2509Z"/>
  <ellipse class="cls-3 fadeIn" cx="169.07681" cy="145.88998" rx="13.65658" ry="20.80566"/>
  <ellipse class="cls-3 fadeIn" cx="194.27525" cy="117.28267" rx="13.65658" ry="20.80566"/>
  <ellipse class="cls-3 fadeIn" cx="223.67343" cy="118.1717" rx="13.65658" ry="20.80566"/>
  <ellipse class="cls-3 fadeIn" cx="248.73115" cy="148.61932" rx="13.65658" ry="20.80566"/>
</svg>