<?xml version="1.0" encoding="UTF-8"?>
<svg id="Layer_1" xmlns="http://www.w3.org/2000/svg" version="1.1" viewBox="0 0 2206.1 2410.3">
  <!-- Generator: Adobe Illustrator 29.2.1, SVG Export Plug-In . SVG Version: 2.1.0 Build 116)  -->
  <defs>
    <style>
      .st0 {
        fill: #8c6239;
      }

      .st1 {
        fill: #006837;
      }
    </style>
  </defs>
  <g>
    <polygon class="st0" points="1233.5 685.4 1085.9 671.5 1089.2 749.8 1074.8 903.1 1201.2 915 1215.6 761.7 1233.5 685.4"/>
    <polygon class="st0" points="1217.3 864.2 1057.5 853.5 1063.4 938 1052.3 1103.8 1189.1 1113 1200.2 947.1 1217.3 864.2"/>
    <polygon class="st0" points="1202.3 1074.2 1042.8 1063.1 1048.5 1147.5 1036.9 1313 1173.5 1322.5 1185 1157 1202.3 1074.2"/>
    <polygon class="st0" points="1187.1 1290.5 1028.2 1273.1 1030.6 1357.6 1012.6 1522.4 1148.6 1537.2 1166.5 1372.4 1187.1 1290.5"/>
    <polygon class="st0" points="1165.7 1504 1006.4 1491.3 1011.2 1575.6 998 1740.9 1134.3 1751.8 1147.5 1586.5 1165.7 1504"/>
    <polygon class="st0" points="1149.1 1720.7 989.4 1712.5 996.6 1796.8 988.2 1962.5 1124.9 1969.5 1133.3 1803.7 1149.1 1720.7"/>
    <polygon class="st0" points="1140.6 1940.5 980.4 1936.9 990.1 2021 986.3 2187.2 1123.4 2190.3 1127.1 2024.1 1140.6 1940.5"/>
    <polygon class="st0" points="1136.9 2163.4 976.3 2164.4 988.4 2248.4 989.4 2415 1126.8 2414.2 1125.8 2247.6 1136.9 2163.4"/>
  </g>
  <g>
    <g>
      <path class="st1" d="M166.8,129.2c23.1-7,47.6-13.4,71-19.4,13.2-3.3,29.5-7.1,42.8-10.1,0,0-13.1,21.6-13.1,21.6-4-8.5-8.8-16.6-13-25-10.5-21-14-46-13.2-69.5.3-5.2.7-10.3,1.9-15.5,0,0,3.8-1.3,3.8-1.3,4.2,3.3,7.8,6.9,11.3,10.8,15.5,17.6,28.7,39.2,33.9,62,2.1,9.1,3.5,18.5,5.9,27.6,0,0,5.2,20.8,5.2,20.8-24.9,1-52.1,2.3-77,2.4-19.3.2-39.6.2-58.9-.4,0,0-.5-4-.5-4h0Z"/>
      <path class="st1" d="M290.8,20.9s2-.8,3-1.1.8-.2.9-.2c3.5,4.2,7.8,7.5,11.2,11.7,17.9,22.1,32.2,48.7,39.5,76.3,3,11.3,5.2,23,8.4,34.3s6.2,23.3,7,25.8c-12.5.6-34.6,2.1-47.9,2.7s-30.8,1.5-46,2c-23.9.8-48.8,1.4-71.9,1.4,0,0-.5-4-.5-4h0c28.3-7.6,58.4-14.8,87.6-21.5,16.8-3.8,36-8.3,52.7-11.4s.6,3.1-1,6.6-4.3,7.5-5.7,9.4-3.6,3.6-4,2.8c-4.5-10.6-10.2-20.7-15.1-31.1-1.8-3.9-3.5-8-5.1-12.1-8.6-23.1-12.9-48.4-13.6-72.8,0-3.2,0-6.4,0-9.6,0-3.1.3-6.2.7-9.4Z"/>
      <path class="st1" d="M338.4,30.4s2.2-.9,3.1-1.1.8,0,.9,0c3.5,4.4,7.7,8.1,11,12.5,20.1,26.8,35.7,58.3,45.2,90.5,4,13.5,7,27.5,10.9,41,1.4,4.9,7.1,25.8,8.7,30.7-12.4.7-43.2,3.2-56.5,3.9-17.7,1-36.1,2.2-54.4,3.1-28.4,1.4-58.1,0-84.8,3.2,0,0-.5-4-.5-4h0c33.4-8.2,69.3-16.2,104.1-23.7,20.3-4.3,42.7-9.1,62.6-12.7s2.7,2.1,2.9,5c-1.2,1.9-5.7,9.4-6.8,11.2-2.1,1-3.8,1.4-4.4,0-5.3-12.6-11.7-24.7-17.2-37.1-2.1-4.7-4.1-9.5-5.8-14.4-10-27.5-15.9-57-18.2-85.8s-.5-7.6-.6-11.4c-.1-3.7-.1-7.4,0-11.1Z"/>
      <path class="st1" d="M386,40s2.5-.9,3.2-1.1c.4,0,.7,0,.8.2,3.5,4.6,7.6,8.7,10.9,13.4,22.1,31.6,39.2,67.9,50.8,104.8,4.9,15.8,8.8,31.9,13.5,47.8s8,28.4,10.4,35.7c-12.3.7-51.7,4.2-65.2,5.1-20.1,1.3-41.5,2.9-62.7,4.2-33,2.1-67.1,4-97.8,5.1,0,0-.5-4-.5-4h0c38.6-8.9,80.1-17.6,120.7-25.8,23.8-4.7,49.3-9.9,72.5-14,3.3-.6,5.2,1.3,6.8,3.5-1,1.6-7,11.4-7.9,12.9-2.1-.2-3.9-.8-4.8-3-6.1-14.5-13.1-28.7-19.4-43.2-2.4-5.5-4.6-11-6.6-16.7-11.5-31.8-19-65.6-22.9-98.9s-.9-8.7-1.3-13.1-.5-8.5-.6-12.8Z"/>
      <path class="st1" d="M433.6,49.6s2.8-1,3.3-1.2c.4,0,.7.2.8.4,3.5,4.9,7.5,9.3,10.7,14.3,24,36.5,42.7,77.4,56.4,119,5.9,18,10.6,36.4,16,54.5,2.9,9.8,8.9,30.9,12.1,40.6-12.1.8-60.3,5.3-73.8,6.3-22.6,1.6-46.8,3.6-71,5.3-37.5,2.7-76.3,5.2-110.8,6.9,0,0-.5-4-.5-4h0c43.7-9.5,91-19,137.3-27.9,27.3-5.2,56-10.7,82.4-15.3,4.4-.8,7.7.4,10.7,1.9-.8,1.3-8.2,13.5-8.9,14.6-2.2-1.3-4.1-3-5.3-5.9-6.9-16.5-14.6-32.7-21.5-49.2-2.6-6.2-5.1-12.6-7.4-19-13-36.2-22.1-74.2-27.6-112s-1.4-9.9-1.9-14.9-.9-9.6-1.2-14.5Z"/>
      <path class="st1" d="M481.2,59.2s3-1.1,3.4-1.2c.3.2.6.3.8.6,3.5,5.1,7.3,9.9,10.6,15.1,25.9,41.5,46.2,87,62.1,133.3,6.9,20.2,12.4,40.8,18.6,61.2,3.7,12.2,9.9,33.4,13.9,45.6-12,.9-68.9,6.4-82.4,7.5-25,2-52.1,4.3-79.3,6.4-42.1,3.3-85.5,6.5-123.8,8.7,0,0-.5-4-.5-4h0c48.8-10.1,101.8-20.3,153.9-30,30.8-5.7,62.6-11.6,92.3-16.6,5.5-.9,10.2-.4,14.6.3-.6,1-9.4,15.5-10,16.4-2.2-2.4-4.2-5.2-5.7-8.9-7.6-18.5-16-36.7-23.6-55.3-2.9-7-5.6-14.1-8.2-21.2-14.4-40.6-25.2-82.8-32.3-125-.9-5.5-1.8-11.1-2.5-16.6s-1.3-10.8-1.8-16.3Z"/>
      <path class="st1" d="M528.8,68.8s3.3-1.2,3.5-1.3c.3.2.6.5.7.7,3.5,5.3,7.2,10.5,10.5,16,27.6,46.4,49.8,96.5,67.7,147.5s14.2,45.3,21.1,68,10.8,35.9,15.6,50.5c-11.8.9-77.5,7.5-91.1,8.6-27.5,2.3-57.4,5-87.6,7.6-46.6,3.9-94.7,7.7-136.7,10.5,0,0-.5-4-.5-4h0c54-10.8,112.7-21.7,170.5-32.1,34.3-6.2,69.2-12.4,102.1-17.9s12.7-1.2,18.5-1.2c-.4.6-10.7,17.5-11,18.1-2.2-3.6-4.4-7.4-6.2-11.8-8.4-20.5-17.5-40.8-25.7-61.3-3.1-7.8-6.2-15.6-9-23.5-15.9-44.9-28.2-91.4-37-138.1-1.1-6.1-2.2-12.2-3.2-18.3s-1.8-11.9-2.4-18Z"/>
      <path class="st1" d="M576.5,78.3s3.5-1.3,3.7-1.3c.3.3.5.6.7.9,3.5,5.6,7.1,11.1,10.3,16.9,29.3,51.5,53.3,106.1,73.3,161.8,8.8,24.6,16.1,49.7,23.6,74.7,5.2,17.1,11.7,38.4,17.3,55.5-11.7,1-86.1,8.6-99.7,9.8-29.9,2.7-62.7,5.7-95.9,8.7-51.2,4.5-103.9,9-149.7,12.3,0,0-.5-4-.5-4h0c59.1-11.4,123.5-23.1,187.1-34.2,37.9-6.6,75.9-13.1,112-19.2,7.8-1.3,15.2-2.1,22.5-2.8-.2.3-11.9,19.5-12.1,19.8-2.3-4.7-4.5-9.6-6.6-14.7-9.2-22.5-18.9-44.8-27.9-67.4-3.4-8.6-6.7-17.2-9.7-25.8-17.3-49.3-31.3-100-41.6-151.2-1.3-6.7-2.6-13.4-3.8-20.1s-2.2-13.1-3-19.7Z"/>
      <path class="st1" d="M387.1,454.2c111.3-20.8,240-43,352-61.2,0,0-13.1,21.6-13.1,21.6-15.6-39.8-33.3-78.8-47.6-119.2-21-60.8-38.5-122.9-50.8-186.1-1.3-7.1-2.6-14.2-3.6-21.4l3.8-1.3c3.8,6.2,7.4,12.5,10.8,18.8,30.7,56.6,56.6,115.7,79,176,9.7,26.8,17.9,54.1,26.2,81.4,6,19.6,12.7,40.9,19.1,60.4-11.6,1.1-94.7,9.7-108.3,11-82.2,7.8-185,17.5-266.9,23.9,0,0-.5-4-.5-4h0Z"/>
      <path class="st1" d="M684.2,139.1l3.8-1.3c4,6.1,7.7,12.3,11.2,18.6,29.3,52.2,53.4,107.2,74,163.3,9.3,25.3,16.8,51.2,24.5,77,2.3,7.6,4.7,15.5,7.2,23.4,3.3,10.5,7.4,23.7,10.7,33.7-12.4,1.1-87.5,8.8-101.8,10.1-52.5,4.9-113.3,10.5-171.1,15.3-27.4,2.3-54.9,4.5-79.7,6.4,0,0-.5-4-.5-4h0c62.7-12,131.1-24.3,198.3-36,40.3-7,80.8-13.9,119-20.2,4-.7,7.8-1,11.5-1.2-.3.4-12.1,19.9-12.3,20.3-1.3-2.5-2.6-5.2-3.8-8-13.8-34.1-29.1-67.7-41.3-102.5-.6-1.6-1.1-3.3-1.7-4.9-18.9-55.4-34.7-112.2-45-169.9s-2.3-13.4-3.1-20.1Z"/>
      <path class="st1" d="M744.3,190.3l3.8-1.3c4.1,6,7.9,12.2,11.5,18.4,27.6,47.9,50,98.8,69,150.6,8.8,23.8,15.7,48.3,22.9,72.6,2.1,7.2,4.4,14.6,6.7,22.1,2.8,9,7.2,23.2,10,31.8-13.3,1.1-80.3,7.9-95.2,9.2-49.5,4.3-106.1,9.5-160,13.9-25.3,2-51.5,4.1-74.5,5.7,0,0-.5-4-.5-4h0c58.7-11.5,122.6-23.2,185.2-34.3,37.4-6.6,75.6-13.3,111.2-19.2,3.4-.6,6.5-.5,9.3-.2-.5.9-11,18.1-11.5,18.9-1.4-1.8-2.6-3.8-3.6-6.2-12.9-31.9-27.4-63.2-38.9-95.6-.5-1.5-1.1-3.1-1.6-4.6-17.7-51.8-32.1-104.9-41.1-159-1-6.2-2-12.5-2.7-18.8Z"/>
      <path class="st1" d="M804.5,241.5l3.8-1.3c4.3,5.9,8.2,12,11.9,18.2,25.8,43.7,46.6,90.3,64.1,137.9s14.6,45.4,21.2,68.3c2,6.8,4,13.8,6.2,20.8s7,22.7,9.3,29.9c-14.1,1.2-73.1,7-88.6,8.3-46.5,3.9-98.9,8.5-149,12.4-23.2,1.8-48.1,3.6-69.4,5,0,0-.5-4-.5-4h0c54.7-11,114-22.1,172.1-32.6,34.5-6.2,70.3-12.6,103.4-18.1,2.9-.5,5.1,0,7.2.9-.8,1.3-10,16.4-10.7,17.6-1.4-1-2.7-2.4-3.5-4.4-12-29.7-25.8-58.6-36.5-88.8s-1-2.9-1.5-4.3c-16.4-48.2-29.5-97.7-37.2-148-.9-5.8-1.6-11.6-2.2-17.6Z"/>
      <path class="st1" d="M864.6,292.6l3.8-1.3c4.4,5.8,8.5,11.8,12.2,18,24,39.5,43.1,81.9,59.1,125.2s13.4,42.5,19.6,63.9c1.8,6.4,3.7,12.9,5.7,19.4s6.7,22.2,8.6,27.9c-15,1.2-65.9,6.1-82.1,7.4-43.5,3.5-91.7,7.6-138,10.9-21.1,1.5-44.7,3.1-64.3,4.3,0,0-.5-4-.5-4h0c50.8-10.5,105.5-21,159-30.9,31.5-5.8,65.1-12,95.5-17.1,2.3-.4,3.8.6,5,1.9-1.1,1.7-8.9,14.7-9.9,16.3-1.5-.3-2.7-1-3.4-2.6-11.1-27.4-24.1-54.1-34.1-82-.5-1.3-.9-2.6-1.4-4-15.2-44.5-26.9-90.5-33.2-137.1-.7-5.4-1.3-10.8-1.7-16.3Z"/>
      <path class="st1" d="M924.7,343.8l3.8-1.3c4.6,5.7,8.7,11.7,12.6,17.8,22.2,35.4,39.7,73.5,54.1,112.6,7.2,19.4,12.3,39.5,17.9,59.5,1.7,6,3.4,12,5.2,18.1s6.5,21.7,7.9,26c-15.9,1.3-58.7,5.3-75.5,6.5-40.5,3.1-84.5,6.6-127,9.4-19,1.2-41.3,2.7-59.1,3.5,0,0-.5-4-.5-4h0c46.8-10,97-19.9,145.9-29.2,28.6-5.4,59.9-11.3,87.7-16s2.4,1.1,2.8,2.9c-1.3,2.2-7.9,13-9.1,15-1.5.4-2.7.4-3.2-.8-10.2-25.2-22.5-49.6-31.7-75.1-.4-1.2-.9-2.4-1.3-3.6-14-40.9-24.3-83.2-29.3-126.2-.6-4.9-1-9.9-1.3-15Z"/>
      <path class="st1" d="M984.8,395l3.8-1.3c4.7,5.6,9,11.5,12.9,17.6,20.2,31.2,36.3,65,49.2,99.9s11.2,36.6,16.3,55.1c1.5,5.5,3.1,11.2,4.8,16.8s6.3,21.2,7.2,24.1c-16.7,1.3-51.5,4.4-68.9,5.7-37.4,2.7-77.3,5.6-115.9,7.9-16.9.9-37.9,2.2-54,2.8,0,0-.5-4-.5-4h0c42.8-9.5,88.5-18.8,132.8-27.5,25.7-5,54.6-10.6,79.8-15,1.1-.2,1.1,1.6.7,3.9-1.6,2.6-6.8,11.2-8.3,13.6-1.5,1.2-2.7,1.8-3.1,1-9.4-22.9-20.8-45-29.3-68.3-.4-1.1-.8-2.2-1.2-3.3-12.7-37.2-21.7-76-25.4-115.2-.4-4.5-.7-9.1-.8-13.7Z"/>
      <path class="st1" d="M1045,446.2l3.8-1.3c4.9,5.6,9.2,11.4,13.3,17.5,18.3,27.1,32.9,56.6,44.2,87.2s10.1,33.7,14.6,50.7c1.4,5.1,2.7,10.3,4.3,15.4s6.1,20.7,6.5,22.2c-17.6,1.3-44.3,3.6-62.4,4.8-34.4,2.4-70.1,4.8-104.9,6.4-14.8.7-34.5,1.7-48.8,2.1,0,0-.5-4-.5-4h0c38.8-9,80-17.7,119.7-25.8,22.8-4.6,49.4-10,72-14s0,2.2-1.5,5-5.6,9.6-7.5,12.3-2.8,3.2-2.9,2.8c-8.5-20.6-19.2-40.5-26.9-61.5-.4-1-.7-2-1.1-3-11.5-33.6-19.1-68.8-21.4-104.3s-.4-8.2-.3-12.4Z"/>
      <path class="st1" d="M990.4,674.6c34.8-8.6,71.4-16.6,106.5-24.1,19.9-4.2,44.2-9,64.1-12.9,0,0-13.1,21.6-13.1,21.6-8.2-19.2-18.5-37.6-25.4-57.3-10.1-30-16.3-61.5-17.5-93.3,0-3.7-.1-7.3.1-11.1l3.8-1.3c5,5.5,9.4,11.3,13.6,17.3,16.1,23.2,29.3,48.2,39.3,74.5,7.2,19.6,10.9,40.4,16.7,60.4,0,0,5.8,20.2,5.8,20.2-49.3,3.7-100.3,6.9-149.7,8.8-12.7.4-31.1,1.3-43.7,1.4,0,0-.5-4-.5-4h0Z"/>
    </g>
    <g>
      <path class="st1" d="M9.9,805.6c14.1-19.6,29.6-39.6,44.6-58.5,8.5-10.7,19.1-23.5,27.9-34,0,0,2.7,25.1,2.7,25.1-8.3-4.3-17.1-7.9-25.5-12-21.1-10.3-39-28.1-52.7-47.2-2.9-4.3-5.7-8.6-7.9-13.5,0,0,2.2-3.4,2.2-3.4,5.3,0,10.4.8,15.5,1.7,11.5,2.3,23.2,5.7,34.2,10.4s21.4,10.7,30.4,18.2c7.2,6,14.1,12.5,21.4,18.3,0,0,16.8,13.4,16.8,13.4-19.1,15.9-40,33.5-59.7,48.7-15.2,11.9-31.3,24.2-47,35.5,0,0-2.8-2.8-2.8-2.8h0Z"/>
      <path class="st1" d="M44.7,640.8c2.4.3,4.7.8,7.1,1.3,4.7,1,9.4,2.2,14,3.6s11.1,3.6,16.7,5.6c10,3.7,19.8,8,29.5,12.7s23.1,12.3,33.1,20.3c3.8,3.1,7.5,6.2,11.2,9.4,4.1,3.5,8.2,7,12.5,10.3s17.3,13.5,18.5,14.4c-8.6,7.2-24,20.9-33.1,28.6-13.5,11.4-27.6,23.4-41.3,34.7-17.4,14.2-36.2,28-53.1,41.9s-1-.3-1.8-.9-1.5-1.5-1.5-1.5h0c15.5-20.2,32.3-41,48.9-61.2,2.5-3,4.9-6,7.4-8.9,11-13.2,23.5-28.4,34.8-40.9s2.7,2.5,3.6,6.7,1.2,8.7,1.2,11-.6,4-1.1,3.7c-10-5.6-20.6-10.2-30.8-15.4-4.5-2.3-8.9-4.9-13.2-7.7-20.1-12.9-38.1-29.9-53-48.2-2.7-3.3-5.2-6.6-7.6-10.1-1.2-1.7-2.1-3.7-3.4-5.3s.1-1.5.6-2.5,1-1.5,1-1.5Z"/>
      <path class="st1" d="M88.4,619.5c3,.7,6,1.4,8.9,2.3,5.9,1.7,11.8,3.6,17.6,5.7s14.1,5.3,21,8.3c12.6,5.3,25,11.5,37.2,17.9s24.7,13.8,35.7,22.5c4.1,3.3,8.2,6.6,12.3,10,4.5,3.7,9,7.5,13.8,10.9s17.8,13.7,20.3,15.4c-8.6,7.3-30.5,27.2-39.7,35.2-16,13.8-32.8,28.6-49.5,42.7-19.6,16.5-40.4,32.6-59.1,48.3-.3.3-1.2,0-2-.3-.5-.5-1.7-1.7-1.7-1.7h0c18.7-23.3,39-47.6,59.1-71.3,3-3.5,5.9-7,8.9-10.4,13.4-15.6,28.2-33,41.8-47.9s3.9.2,6,2.6c.2,2.3,1.2,11.1,1.4,13.1-.8,1.7-1.7,2.7-2.8,2.1-11.8-6.7-24.2-12.5-36.1-18.9-5.3-2.9-10.5-5.9-15.5-9.2-23.7-15.4-45.5-34.5-64.2-55.3-3.3-3.7-6.6-7.5-9.6-11.4-1.5-1.9-2.8-4.1-4.5-6s-.3-1.7-.2-2.9c.3-.5,1.1-1.7,1.1-1.7Z"/>
      <path class="st1" d="M132,598.2c3.6,1,7.2,2.1,10.8,3.3,7.2,2.4,14.2,5,21.3,7.9s17,7.1,25.3,10.9c15.2,7,30.1,14.9,44.8,23,13.3,7.3,26.3,15.4,38.3,24.6,4.5,3.5,9,7,13.4,10.6,4.9,3.9,9.8,7.9,15,11.6s18.3,13.8,22,16.4c-8.6,7.4-37,33.5-46.3,41.7-18.4,16.1-38,33.8-57.6,50.8-21.8,18.8-44.7,37.2-65.2,54.8-.5.4-1.4.3-2.3.2-.4-.4-1.9-1.9-1.9-1.9h0c21.9-26.4,45.6-54.1,69.4-81.4,3.5-4,6.9-7.9,10.4-11.9,15.9-18.1,32.9-37.6,48.7-54.8s5.5-2.3,8.4-1.5c.2,2,1.4,13.4,1.6,15.1-1.4,1-2.8,1.4-4.5.5-13.6-7.8-27.7-14.7-41.4-22.4-6.1-3.4-12-6.9-17.9-10.7-27.4-17.8-52.9-39.2-75.4-62.4-4-4.1-7.9-8.3-11.7-12.6-1.9-2.2-3.6-4.5-5.5-6.6s-.8-2-1.1-3.2c.3-.4,1.3-2,1.3-2Z"/>
      <path class="st1" d="M175.6,576.9c4.3,1.3,8.5,2.8,12.6,4.3,8.4,3.1,16.7,6.5,24.9,10s19.9,8.9,29.7,13.6c17.8,8.7,35.3,18.3,52.5,28.2,14.1,8.1,27.9,16.9,40.9,26.7,4.9,3.7,9.7,7.4,14.5,11.2,5.3,4.1,10.6,8.3,16.2,12.3s18.8,14,23.8,17.4c-8.6,7.5-43.5,39.9-52.9,48.3-20.8,18.5-43.3,39-65.8,58.9-24,21.1-48.9,41.8-71.2,61.2-.6.5-1.6.7-2.5.8-.3-.3-2.1-2.1-2.1-2.1h0c25.1-29.6,52.3-60.7,79.6-91.5,4-4.5,7.9-8.9,11.9-13.4,18.4-20.6,37.6-42.2,55.7-61.7s7.2-4.8,10.8-5.5c.2,1.6,1.7,15.8,1.8,17.1-2,.3-4,0-6.1-1.2-15.4-8.9-31.2-17-46.7-25.8-6.8-3.9-13.6-8-20.2-12.3-31-20.2-60.2-43.9-86.6-69.5s-9.3-9.2-13.7-13.9-4.3-4.9-6.5-7.3-1.3-2.2-1.9-3.6c.2-.3,1.5-2.3,1.5-2.3Z"/>
      <path class="st1" d="M219.3,555.6c4.9,1.6,9.7,3.4,14.5,5.3,9.6,3.8,19.1,7.9,28.5,12.1,11.4,5.2,22.8,10.6,34,16.3,20.4,10.4,40.4,21.7,60.2,33.4s29.6,18.4,43.5,28.8c5.2,3.9,10.4,7.9,15.6,11.8,5.7,4.3,11.5,8.7,17.4,13s19.3,14.1,25.5,18.4c-8.6,7.6-49.9,46.2-59.5,54.9-23.2,20.9-48.6,44.1-74,66.9-26.2,23.3-53.1,46.5-77.3,67.6-.7.7-1.8,1-2.8,1.4-.3-.3-2.3-2.3-2.3-2.3h0c28.3-32.7,59-67.3,89.8-101.6,4.5-5,8.9-9.9,13.4-14.9,20.8-23,42.3-46.8,62.7-68.7,4.3-4.6,8.8-7.2,13.3-9.6.1,1.2,1.9,18.1,2,19.1-2.5-.4-5.1-1.2-7.8-2.8-17.2-10-34.8-19.3-51.9-29.3-7.6-4.4-15.1-9-22.5-13.8-34.7-22.7-67.6-48.6-97.8-76.6-5.4-5-10.6-10-15.8-15.2s-5-5.3-7.6-7.9-1.9-2.5-2.7-3.9c.2-.2,1.6-2.6,1.6-2.6Z"/>
      <path class="st1" d="M262.9,534.2c5.5,2,11,4.1,16.3,6.3,10.8,4.5,21.5,9.3,32.2,14.3,12.9,6.1,25.7,12.4,38.3,19,23.1,12,45.6,25,67.8,38.6s31.2,20,46.1,30.9c5.6,4.1,11.2,8.3,16.8,12.4,6,4.5,12.3,9.1,18.6,13.6s19.8,14.3,27.3,19.4c-8.6,7.7-56.4,52.5-66.1,61.4-25.6,23.3-53.8,49.3-82.2,75-28.4,25.6-57.3,51.1-83.3,74.1-.9.8-2,1.4-3,2-.2-.2-2.5-2.5-2.5-2.5h0c31.5-35.8,65.7-73.9,100-111.6,5-5.5,9.9-10.9,14.9-16.4,23.3-25.5,47-51.4,69.6-75.6,5.2-5.5,10.5-9.7,15.7-13.7,0,.8,2.2,20.4,2.2,21.1-3.1-1.2-6.3-2.5-9.5-4.4-18.9-11.1-38.3-21.6-57.2-32.7-8.4-4.9-16.7-10-24.9-15.3-38.4-25.1-74.9-53.3-109.1-83.7-6-5.4-12-10.9-17.8-16.5s-5.7-5.7-8.6-8.6-2.4-2.8-3.5-4.3c.1-.2,1.8-2.8,1.8-2.8Z"/>
      <path class="st1" d="M306.6,512.9c6.2,2.3,12.2,4.8,18.2,7.3,12.1,5.2,24,10.7,35.8,16.4,14.4,6.9,28.6,14.2,42.7,21.7,25.7,13.7,50.8,28.3,75.5,43.7,16.7,10.4,32.8,21.5,48.7,33,6,4.3,11.9,8.7,17.9,13,6.4,4.7,13.1,9.5,19.9,14.3,9,6.4,20.3,14.4,29,20.4-8.5,7.8-62.8,58.9-72.7,68-27.9,25.7-59.1,54.5-90.3,83-30.6,27.9-61.5,55.7-89.4,80.5s-2.2,1.8-3.3,2.6c0,0-2.6-2.6-2.6-2.6h0c34.7-38.9,72.3-80.5,110.2-121.7,5.5-6,10.9-11.9,16.4-17.8,25.8-28,51.7-56,76.6-82.6,6.1-6.4,12.1-12.2,18.1-17.7,0,.4,2.4,22.8,2.5,23.1-3.7-1.9-7.4-3.8-11.2-6-20.8-12.2-41.8-23.9-62.5-36.2-9.2-5.5-18.3-11-27.2-16.9-42-27.6-82.3-58-120.3-90.9-6.7-5.8-13.4-11.7-19.9-17.7s-6.5-6.1-9.7-9.2-2.9-3-4.3-4.6c0,0,2-3.1,2-3.1Z"/>
      <path class="st1" d="M382.4,929.8c37.9-42.1,79-87,120.4-131.8,41.4-44.8,83.1-89.4,122-130.6,0,0,2.7,25.1,2.7,25.1-36.6-22.1-74.3-42.4-110.2-65.7-53.6-35.5-105.3-74.2-153.4-117-5.4-4.8-10.7-9.7-15.9-14.8,0,0,2.2-3.4,2.2-3.4,6.8,2.6,13.4,5.5,20,8.4,29.4,13.2,58.2,27.5,86.5,42.9,28.3,15.4,56,31.8,83.2,48.9,24,15.4,47.1,32.1,70.3,48.8,16.6,11.9,34.9,24.8,51.9,36.4-8.5,7.9-69.3,65.2-79.3,74.6-30.3,28.1-64.3,59.7-98.5,91.1-34.1,31.4-68.4,62.7-99,90.1,0,0-2.8-2.8-2.8-2.8h0Z"/>
      <path class="st1" d="M429.1,495.7c6.4,2.4,12.6,4.9,18.9,7.6s12.9,5.7,19.4,8.7c48.3,22.3,95.1,48,140,76.5,22.8,14.5,44.5,30.5,66.3,46.3,6.5,4.7,13.2,9.5,19.9,14.3,9,6.4,20.3,14.3,29,20.3-9.2,8.4-64.1,60.2-74.7,69.9-38.2,35.3-82.3,75.9-124.6,114.4-20.1,18.3-40.4,36.5-58.9,53s-1.7,1.4-2.6,2c0,0-2.7-2.7-2.7-2.7h0c42.3-47.4,88.9-98.5,135-148.4,27.6-29.9,55.5-59.8,81.9-87.9,3.1-3.3,6.3-6.2,9.5-9,0,.5,2.5,23.2,2.5,23.6-2.1-1-4.2-2-6.3-3.3-32.3-19.2-65.5-36.8-96.9-57.5-49.3-32.4-96.4-68.3-140.3-107.8-1-.9-2-1.8-2.9-2.7-4.1-3.7-8.1-7.6-12.1-11.5s-1.5-1.8-2.3-2.6c0,0,2-3.2,2-3.2Z"/>
      <path class="st1" d="M507.9,499.8c6,2.1,11.9,4.4,17.7,6.9s12.1,5.2,18.1,7.9c45.3,20.3,89,44,130.9,70.6s41.8,28.8,62.3,43.8c6.1,4.4,12.4,9,18.7,13.5,7.7,5.4,19.8,14,27.3,19.2-9.9,9-59,55.1-70.1,65.3-36.2,33.1-77.3,70.9-117,106.7-18.7,16.8-38.1,34.1-55.3,49.4s-1.5,1.1-2.4,1.5c-.2-.2-2.5-2.5-2.5-2.5h0c39.5-44.6,82.9-92.5,125.7-139.2,25.5-27.8,51.7-56.2,76.3-82.4s5.5-4.8,8.3-6.6c.1,1.1,2.2,21.2,2.3,22.1-1.7-.5-3.5-1.1-5.3-2.2-30.3-17.9-61.5-34.2-90.9-53.5-46-30.3-89.8-64.1-130.3-101.5-.9-.8-1.8-1.7-2.7-2.5-3.8-3.5-7.4-7.2-11.1-10.9s-1.1-1.8-1.8-2.5c0,0,1.9-2.9,1.9-2.9Z"/>
      <path class="st1" d="M586.8,503.9c5.6,1.9,11.1,3.9,16.5,6.1s11.3,4.6,16.9,7.1c42.2,18.4,83,40.1,121.8,64.7,20.1,12.8,39.1,27.2,58.3,41.3,5.7,4.2,11.6,8.5,17.5,12.7s19.3,13.8,25.6,18.1c-10.6,9.6-53.9,50.1-65.5,60.6-34.1,30.9-72.4,65.9-109.4,99-17.2,15.4-35.8,31.7-51.7,45.8s-1.4.8-2.2,1c-.3-.3-2.3-2.3-2.3-2.3h0c36.6-41.8,76.8-86.5,116.4-130,23.5-25.8,48-52.5,70.8-76.9,2.2-2.4,4.6-3.4,7-4.1.2,1.6,2,19.2,2.2,20.5-1.4,0-2.9-.2-4.4-1.1-28.2-16.7-57.6-31.6-84.9-49.6-42.7-28.2-83.3-59.9-120.4-95.2-.8-.8-1.7-1.6-2.5-2.4-3.4-3.3-6.8-6.8-10.2-10.3s-.8-1.8-1.4-2.3c0,0,1.8-2.7,1.8-2.7Z"/>
      <path class="st1" d="M665.6,508.1c5.2,1.6,10.3,3.4,15.3,5.3s10.5,4.1,15.7,6.3c39.2,16.3,76.9,36.1,112.8,58.8,18.8,11.9,36.5,25.6,54.3,38.8,5.3,4,10.8,8,16.4,12s18.8,13.5,23.8,17c-11.2,10.1-48.7,45-60.9,56-32,28.8-67.4,60.9-101.7,91.3-15.7,13.9-33.5,29.3-48.1,42.2s-1.2.5-2,.6c-.4-.4-2.2-2.2-2.2-2.2h0c33.8-39,70.8-80.5,107.1-120.7,21.4-23.7,44.3-48.9,65.2-71.4s3.8-2,5.8-1.7c.2,2.1,1.8,17.2,2,19-1.1.6-2.2.7-3.4,0-26.2-15.5-53.6-29-79-45.7-39.5-26-76.7-55.7-110.4-88.8-.8-.7-1.5-1.5-2.2-2.2-3.1-3.1-6.1-6.4-9.2-9.7s-.4-1.7-.9-2.2c0,0,1.6-2.5,1.6-2.5Z"/>
      <path class="st1" d="M744.5,512.2c4.8,1.4,9.5,2.9,14.1,4.6,4.8,1.7,9.7,3.6,14.5,5.5,36.1,14.4,70.9,32.2,103.7,53,17.5,11.1,33.8,23.9,50.4,36.4,5,3.7,10,7.5,15.2,11.2s18.4,13.3,22.1,15.8c-11.9,10.7-43.6,40-56.3,51.3-29.9,26.8-62.4,55.9-94.1,83.6-14.3,12.4-31.2,26.9-44.6,38.5s-1.1.2-1.9,0c-.5-.5-2-2-2-2h0c31-36.3,64.7-74.5,97.8-111.5,19.4-21.6,40.5-45.2,59.7-65.8,1.3-1.4,2.9-.7,4.6.7.3,2.7,1.6,15.3,1.9,17.5-.7,1.1-1.5,1.6-2.4,1.1-24.1-14.2-49.6-26.3-73-41.8-36.2-23.9-70.2-51.5-100.5-82.5-.7-.7-1.3-1.4-2-2.1-2.8-2.9-5.4-6.1-8.2-9.1s0-1.7-.4-2.1c0,0,1.5-2.3,1.5-2.3Z"/>
      <path class="st1" d="M823.3,516.3c4.4,1.1,8.7,2.4,12.9,3.8,4.4,1.5,8.8,3,13.2,4.7,33.1,12.4,64.8,28.2,94.6,47.1,16.2,10.2,31.2,22.3,46.4,33.9,4.6,3.5,9.2,7,14,10.4s17.9,13,20.4,14.7c-12.6,11.3-38.4,35-51.6,46.7-27.8,24.7-57.4,50.9-86.4,75.9-12.8,11-28.9,24.4-41,34.9s-.9,0-1.7-.4c-.6-.6-1.8-1.8-1.8-1.8h0c28.1-33.5,58.7-68.6,88.5-102.3,17.3-19.6,36.8-41.6,54.2-60.3.9-1,2.1.7,3.3,3.1.3,3.2,1.4,13.3,1.7,15.9-.4,1.6-.9,2.5-1.5,2.1-22.1-13-45.6-23.7-67-37.9-32.9-21.8-63.6-47.3-90.5-76.2s-1.2-1.3-1.8-1.9c-2.5-2.7-4.7-5.7-7.3-8.5s.3-1.7.1-1.9c0,0,1.4-2.1,1.4-2.1Z"/>
      <path class="st1" d="M902.2,520.4c4,.9,7.9,1.9,11.7,3.1,4,1.2,8,2.5,12,3.9,30,10.4,58.7,24.3,85.5,41.2,14.9,9.4,28.5,20.6,42.4,31.4,4.2,3.3,8.4,6.5,12.8,9.6s17.4,12.8,18.7,13.6c-13.3,11.8-33.3,30-47,42-25.7,22.6-52.4,46-78.8,68.2-11.3,9.5-26.5,22-37.4,31.3s-.8-.3-1.5-.9-1.7-1.7-1.7-1.7h0c25.3-30.7,52.7-62.6,79.2-93.1,15.3-17.5,33.1-37.9,48.6-54.8.4-.5,1.5,2.1,2.1,5.5s1.4,11.3,1.5,14.4-.2,3.4-.5,3.2c-20.1-11.7-41.6-21.1-61-34-29.6-19.7-57.1-43-80.6-69.8-.5-.6-1-1.2-1.5-1.8-2.2-2.5-4.1-5.3-6.3-7.9s.7-1.7.6-1.8c0,0,1.2-1.9,1.2-1.9Z"/>
      <path class="st1" d="M995.4,738.3c22.5-28,46.6-56.6,69.9-83.9,13.2-15.4,29.6-34,43.1-49.2,0,0,2.7,25.1,2.7,25.1-18.2-10.2-37.5-18.6-55-30.1-26.2-17.7-50.4-39-70.6-63.5-2.3-2.8-4.5-5.8-6.7-8.9l2.2-3.4c7.3,1.3,14.3,3.3,21.3,5.4,26.9,8.6,52.6,20.5,76.4,35.3,17.6,11.2,33.2,25.4,50,37.8,0,0,16.9,12.5,16.9,12.5-37,32.9-75.5,66.4-113.6,97.9-9.9,8-24,19.9-33.9,27.7,0,0-2.8-2.8-2.8-2.8h0Z"/>
    </g>
    <g>
      <path class="st1" d="M452.3,1471.1c-2.1-24.1-3.3-49.3-4.3-73.5-.5-13.6-.8-30.3-1-44,0,0,18.4,17.3,18.4,17.3-9.1,2.1-18.1,5.1-27.2,7.5-22.7,5.9-47.9,4.1-70.7-1.5-5-1.4-9.9-2.9-14.8-5.1,0,0-.5-4-.5-4,4.1-3.4,8.4-6.2,12.9-8.8,20.5-11.5,44.3-20,67.7-20.3,9.4-.1,18.8.4,28.2,0,0,0,21.5-.8,21.5-.8-4.1,24.5-8.6,51.5-13.6,75.8-3.8,18.9-8,38.8-12.6,57.5,0,0-4-.3-4-.3h0Z"/>
      <path class="st1" d="M381.9,1317.4c25.5-12.6,54.3-21.4,82.8-22.9,11.7-.6,23.6-.3,35.3-1.1s24.1-1.2,26.7-1.5c-2,12.4-5.1,34.3-7.3,47.4-2.5,15-4.9,30.5-7.6,45.5-4.2,23.5-8.7,48-13.5,70.6,0,0-4-.3-4-.3h0c-1.6-28.9-2.4-59.5-2.9-89.1-.3-17-.7-36.6-.2-53.3,0-1.7,5.3.8,9.4,3.8s7.1,6.5,8.3,7.8.6.9.4.9c-11.2,2.1-22.1,5.7-33.2,8.3-7,1.7-14.1,2.9-21.3,3.6-21.5,2.2-43.7,1.1-64.6-2.6s-12-3.4-18.2-4.4-.7-1.8-1-1.8-.7-1.7-.9-1.7c.7-1.2,1.3-2.5,2.2-3.4s.6-1,1-1.2c2.7-1.7,5.6-3.1,8.5-4.5Z"/>
      <path class="st1" d="M398.7,1275.5c30.7-13.4,64.4-22.8,97.9-25.4,14.1-1.1,28.3-1.1,42.4-2.2s26.8-1.6,31.9-2.1c-1.9,12.3-5.8,42.9-7.9,56.1-2.7,17.5-5.4,35.8-8.3,53.8-4.5,28.1-12,56.9-14.4,83.7s-4-.3-4-.3h0c-1.2-33.8-1.5-69.8-1.6-104.8,0-20.3-.1-42.8.5-62.7.1-3.3,4.4-2.7,8.3-2.4,2.1,2,8.7,8.2,9.7,9.2.2.5.1.8-.2.9-13.1,2.4-26.1,6.2-39.1,9-8.2,1.8-16.6,3.2-25,4.2-25.3,2.8-51.2,2.4-76-.7-7.3-.9-14.4-2.8-21.7-3.7s-1.2-1.6-1.6-1.6-1.1-1.4-1.5-1.5c-.2-1.1-.3-2-.5-3,.3-.2.5-1.4.8-1.6,3.3-1.9,6.8-3.3,10.2-4.9Z"/>
      <path class="st1" d="M415.5,1233.7c35.8-14.3,74.5-24.3,113-28,16.4-1.6,33-2,49.5-3.3s29.4-2,37.1-2.8c-1.8,12.1-6.6,51.5-8.5,64.8-2.9,20-5.8,41.2-8.9,62.2-4.8,32.7-10.1,66.5-15.3,96.7,0,0-4-.3-4-.3h0c-.7-38.7-.7-80-.3-120.5.3-23.6.5-49.1,1.2-72,.2-5,3.9-6.6,7.3-8.5,1.7,1.6,10.3,9.7,11.1,10.5,0,.5-.3.8-.8.9-15.1,2.7-30.1,6.7-45.1,9.8-9.5,2-19.1,3.6-28.8,4.7-29,3.4-58.7,3.6-87.4,1.2-8.4-.7-16.7-2.3-25.1-3.1s-1.6-1.3-2.3-1.3-1.4-1.2-2.1-1.2c-1.1-.9-2.1-1.8-3.1-2.6.3-.2.3-1.9.6-2,3.8-2.1,7.9-3.6,12-5.2Z"/>
      <path class="st1" d="M432.2,1191.9c41-15.1,84.6-25.7,128.1-30.5,18.8-2.1,37.8-2.8,56.6-4.4,10.2-.8,32-2.3,42.3-3.5-1.7,12-7.3,60.1-9.2,73.5-3.1,22.4-6.2,46.5-9.5,70.5-5.2,37.3-10.7,75.7-16.3,109.8,0,0-4-.3-4-.3h0c-.3-43.5.2-90.3,1-136.2.5-26.9,1-55.3,2-81.4s3.4-10.6,6.2-14.6c1.4,1.3,11.9,11.2,12.6,11.9-.3.4-.8.7-1.4.8-17.1,3.1-34.1,7.2-51.1,10.6-10.8,2.1-21.6,4-32.5,5.3-32.8,3.9-66.2,4.9-98.9,3.2-9.6-.5-19-1.8-28.6-2.4s-2-1.1-3-1.1-1.9-.8-2.7-1c-2.1-.4-3.9-1.5-5.8-2.3.2-.1.1-2.3.3-2.4,4.3-2.4,9.1-3.8,13.7-5.5Z"/>
      <path class="st1" d="M449,1150c46.2-16,94.7-27.1,143.2-33.1,21.2-2.5,42.5-3.7,63.7-5.5s34.7-2.7,47.5-4.1c-1.6,11.9-8,68.7-9.8,82.2-3.3,24.9-6.6,51.8-10.1,78.9-5.5,41.8-11.4,85-17.2,122.9,0,0-4-.3-4-.3h0c.2-48.4,1.1-100.5,2.4-151.9.8-30.3,1.6-61.5,2.7-90.8.3-8.3,2.8-14.5,5.1-20.8,1,1,13.5,12.7,14,13.2-.6.4-1.2.6-2,.8-19.1,3.4-38.1,7.7-57.1,11.4-12,2.3-24.1,4.4-36.3,5.8-36.6,4.5-73.7,6.1-110.3,5.1-10.7-.3-21.3-1.2-32-1.8s-2.5-.8-3.7-.8-2.2-.7-3.3-.8c-2.9-.4-5.7-1.2-8.5-1.9.2-.1,0-2.7.1-2.8,4.9-2.6,10.3-4,15.4-5.8Z"/>
      <path class="st1" d="M465.8,1108.2c51.3-16.8,104.8-28.7,158.3-35.6,23.5-3.1,47.2-4.5,70.9-6.5,15.3-1.3,37.3-3.1,52.7-4.8-1.6,11.8-8.7,77.4-10.4,90.9-3.4,27.4-7,57.2-10.8,87.3-5.8,46.4-12.1,94.2-18.1,135.9,0,0-4-.3-4-.3h0c.6-53.2,2-110.8,3.7-167.6,1-33.6,2.1-67.8,3.5-100.1.4-9.9,2.3-18.4,4-26.9.7.7,15.1,14.3,15.5,14.6-.8.3-1.7.6-2.6.7-21.1,3.7-42,8.2-63.1,12.1-13.3,2.5-26.6,4.7-40,6.4-40.4,5-81.2,7.3-121.7,7.1-11.8-.1-23.6-.7-35.4-1.1s-2.9-.6-4.4-.6-2.6-.5-3.9-.6c-3.7-.3-7.5-1-11.2-1.5.1,0-.2-3.1-.1-3.2,5.4-2.8,11.4-4.2,17.2-6.1Z"/>
      <path class="st1" d="M482.6,1066.4c56.5-17.7,114.8-30.1,173.5-38.2,25.9-3.6,51.9-5.4,78-7.6,17.8-1.6,40-3.5,57.9-5.5-1.5,11.6-9.4,86-11.1,99.6-3.6,29.9-7.4,62.5-11.4,95.6-6.2,51-12.7,103.5-19,149,0,0-4-.3-4-.3h0c1.1-58.1,2.9-121,5-183.3,1.3-36.9,2.7-74,4.2-109.5.5-11.6,1.7-22.4,2.9-33,.3.3,16.8,15.8,16.9,16-1,.3-2.1.5-3.2.7-23.1,4-46,8.7-69.1,12.9-14.5,2.6-29.1,5.1-43.8,7-44.1,5.6-88.7,8.6-133.1,9-13,.1-25.9-.2-38.9-.5s-3.4-.3-5-.3-3-.3-4.5-.4c-4.6-.2-9.2-.7-13.9-1.2,0,0-.4-3.5-.3-3.6,6-3.1,12.6-4.4,18.9-6.4Z"/>
      <path class="st1" d="M788.5,1342.9c2.7-113.2,7.8-243.7,13.1-357,0,0,18.4,17.3,18.4,17.3-42.2,7-84,16.2-126.4,21.8-63.8,8-128.2,12.2-192.6,11.1-7.2-.2-14.4-.4-21.7-.9,0,0-.5-4-.5-4,6.9-2.4,13.8-4.6,20.7-6.7,61.7-18.3,124.9-31.4,188.6-40.7,28.2-4,56.7-6.3,85.1-8.7,20.4-1.8,42.6-3.9,63.1-6.1-1.4,11.5-10.1,94.6-11.7,108.2-9.4,82-21.2,184.6-31.9,266.1,0,0-4-.3-4-.3h0Z"/>
      <path class="st1" d="M565.2,973.4c57.2-17.6,116-30,175.1-38.5,26.7-3.8,53.6-5.8,80.4-8,7.9-.7,16.2-1.4,24.4-2.2,11-1,24.7-2.3,35.2-3.5-1.5,12.4-9.5,87.4-11.2,101.6-6.1,52.4-13.3,113-20.5,170.5-3.4,27.3-6.9,54.6-10.3,79.3,0,0-4-.3-4-.3h0c1.3-61.9,3.3-129.1,5.7-195.3,1.4-39.5,3-79.3,4.7-117,.3-7.4,1.3-14.1,2.2-20.8.6.5,17.2,16.2,17.2,16.2-36.7,6.2-73,14.3-109.8,19.5-3,.4-6.1.9-9.1,1.2-53,6.7-106.5,10-159.9,9.5-6.6,0-13.2-.3-19.7-.4s-1-.1-1.5-.1c-1.7,0-3.4-.4-5.1-.5-4.3-.2-8.6-.7-13-1.2,0,0-.3-3.6-.2-3.6,6.3-2.7,12.9-4.5,19.4-6.5Z"/>
      <path class="st1" d="M631.1,922.4c52.7-16.7,107-28.4,161.7-36.3,25.1-3.6,50.5-5.3,75.8-7.3,7.5-.6,15.2-1.3,23-2,9.4-.9,24.2-2.2,33.2-3.2-1.6,13.2-8.9,80.2-10.7,95-6,49.3-12.7,105.8-19.6,159.4-3.3,25.2-6.7,51.2-9.9,74.1,0,0-4-.3-4-.3h0c.9-58.2,2.6-121.2,4.6-183,1.2-36.8,2.6-74.4,4.1-109.6.3-6.3,1.8-11.4,3.3-16.5,1.1,1.1,16,15.1,16,15.1-34.3,5.9-68.4,13.7-102.9,18.6-2.8.4-5.7.8-8.5,1.1-49.7,6.2-99.8,9-149.9,7.7-6.2-.2-12.3-.5-18.5-.7s-.9-.2-1.3-.3c-1.4,0-3-.8-4.5-.9-3.4-.3-6.7-1-10.1-1.6.2,0,0-3.1,0-3.2,5.9-2.5,12-4.3,18.1-6.2Z"/>
      <path class="st1" d="M696.9,871.3c48.3-15.8,98-26.8,148.2-34.1,23.6-3.4,47.4-4.8,71.2-6.6,7.1-.5,14.3-1.1,21.6-1.8s23.6-2.1,31.2-2.9c-1.8,14.1-8.3,72.9-10.2,88.4-5.8,46.3-12.2,98.5-18.8,148.3-3.1,23.1-6.4,47.8-9.5,68.9,0,0-4-.3-4-.3h0c.6-54.5,1.9-113.2,3.6-170.7,1-34,2.2-69.5,3.5-102.2.2-5.3,2.3-8.8,4.3-12.3,1.7,1.6,14.8,14,14.8,14-32,5.6-63.8,13.1-96,17.7-2.7.4-5.3.7-8,1-46.3,5.6-93.2,7.9-139.9,6-5.7-.2-11.4-.7-17.2-1s-.8-.4-1.1-.4c-1.2,0-2.6-1.1-3.8-1.2-2.4-.4-4.8-1.3-7.2-2,.2-.1.1-2.7.4-2.8,5.5-2.4,11.2-4.1,16.8-6Z"/>
      <path class="st1" d="M762.8,820.2c43.8-14.9,89.1-25.2,134.8-31.9,22-3.2,44.3-4.3,66.5-5.9,6.6-.5,13.4-1,20.2-1.6s23.1-2,29.1-2.6c-1.9,14.9-7.7,65.7-9.7,81.8-5.6,43.3-11.6,91.3-18,137.2-2.9,21-6.2,44.4-9.2,63.7,0,0-4-.3-4-.3h0c.2-50.7,1.2-105.2,2.6-158.4.8-31.3,1.7-64.6,3-94.9.2-4.2,2.8-6.1,5.4-8,2.2,2.1,13.6,12.8,13.6,12.8-29.7,5.3-59.1,12.6-89,16.7-2.5.3-4.9.7-7.4.9-43,5.1-86.6,6.8-129.8,4.2-5.3-.3-10.6-1-15.9-1.3s-.6-.5-.9-.5c-1,0-2.1-1.6-3.1-1.6-1.4-.8-2.8-1.6-4.2-2.4.3-.2.4-2.3.7-2.5,5.1-2.2,10.3-4,15.5-5.7Z"/>
      <path class="st1" d="M828.6,769.1c39.3-14,80.1-23.6,121.3-29.6,20.5-3,41.2-3.9,61.9-5.2,6.2-.4,12.5-.8,18.8-1.4s22.6-1.9,27.1-2.4c-2.1,15.8-7,58.5-9.3,75.2-5.4,40.2-11.1,84.1-17.2,126.1-2.8,18.9-6,41-8.8,58.6,0,0-4-.3-4-.3h0c-.1-47,.6-97.2,1.6-146.1.6-28.5,1.3-59.8,2.4-87.5.1-3.2,3.3-3.4,6.4-3.7,2.8,2.6,12.4,11.7,12.4,11.7-27.4,5-54.5,12.1-82.1,15.8-2.3.3-4.6.6-6.8.8-39.7,4.5-80,5.8-119.8,2.5-4.9-.4-9.7-1.2-14.7-1.6s-.5-.6-.7-.6c-.7,0-1.7-1.9-2.4-2-.5-1-.9-1.9-1.3-2.8.4-.2.6-1.9,1-2.1,4.7-2.1,9.5-3.8,14.2-5.5Z"/>
      <path class="st1" d="M894.5,718c34.9-13,71.1-22,107.9-27.4,19-2.8,38.2-3.4,57.3-4.5,5.7-.3,11.6-.7,17.4-1.2s22.1-1.8,25.1-2.1c-2.2,16.6-6.4,51.3-8.8,68.6-5.1,37.2-10.5,76.8-16.3,115-2.6,16.7-5.7,37.5-8.4,53.4,0,0-4-.3-4-.3h0c-.5-43.3-.1-89.3.5-133.8.4-25.8.9-54.9,1.8-80.1,0-2.1,3.8-.8,7.5.5,3.3,3.2,11.2,10.6,11.2,10.6-25.1,4.7-49.8,11.6-75.2,14.9s-4.2.5-6.3.7c-36.4,4-73.4,4.7-109.8.7-4.4-.5-8.9-1.4-13.4-1.9s-.4-.7-.5-.7c-.5,0-1.3-2.3-1.8-2.3.5-1.1,1-2.2,1.6-3.2.5-.2.8-1.5,1.3-1.7,4.2-2,8.6-3.6,13-5.2Z"/>
      <path class="st1" d="M960.3,667c30.4-12.1,62.2-20.4,94.4-25.2,17.4-2.6,35.1-2.9,52.6-3.8,5.3-.3,10.6-.5,16-1s21.5-1.6,23-1.8c-2.3,17.5-5.7,44.1-8.3,62-4.8,34.2-9.9,69.6-15.5,103.9s-5.5,34.1-8,48.2c0,0-4-.3-4-.3h0c-.8-39.6-.8-81.3-.5-121.5.2-23.1.4-50,1.2-72.8,0-1.1,4.6,1.6,8.5,4.8s10,9.4,10,9.4c-22.8,4.4-45.2,11-68.3,13.9s-3.8.4-5.7.7c-33.1,3.5-66.8,3.6-99.8-1-4-.6-8-1.7-12.1-2.1s-.3-.8-.3-.8c-.2,0-.8-2.7-1.1-2.7,1.5-1.3,2.9-2.6,4.5-3.6s1-1.1,1.6-1.3c3.8-1.8,7.7-3.4,11.7-5Z"/>
      <path class="st1" d="M1156.6,778.6c-1.2-35.8-1.5-73.3-1.5-109.2,0-20.3.3-45.1.7-65.4,0,0,18.4,17.3,18.4,17.3-20.5,4.1-40.6,10.3-61.3,13-31.4,3.6-63.6,3.2-94.9-2.2-3.6-.7-7.2-1.4-10.8-2.4,0,0-.5-4-.5-4,6.4-3.8,13-6.8,19.7-9.8,26-10.9,53.2-18.7,81-23,20.7-3,41.8-2.3,62.6-3.9,0,0,21-1.5,21-1.5-6.6,49-14.1,99.5-22.5,148.3-2.3,12.5-5.2,30.7-7.7,43.1,0,0-4-.3-4-.3h0Z"/>
    </g>
    <g>
      <path class="st1" d="M2145.4,28.3c-6,23.4-13.2,47.6-20.3,70.7-4,13-9.3,28.9-13.6,41.8,0,0-11.6-22.4-11.6-22.4,9.3,1,18.8,1.1,28.1,1.9,23.4,1.9,46.5,12,66.2,24.8,4.3,2.9,8.4,6,12.3,9.7,0,0-.8,3.9-.8,3.9-5,1.9-10,3-15.1,4.1-23.1,4.1-48.4,4.2-70.6-3.3-8.9-3-17.6-6.6-26.6-9.3,0,0-20.5-6.4-20.5-6.4,12-21.8,25.2-45.7,38-67,9.9-16.6,20.4-33.9,30.9-50.1,0,0,3.7,1.6,3.7,1.6h0Z"/>
      <path class="st1" d="M2097.3,28.1c-.2.4,2.9,2.3,2.7,2.7h0c-6.8,23.2-14.4,47.3-22.1,71-1.6,4.8-3.2,9.6-4.7,14.4-5.4,16.2-11.6,34.9-17.5,50.6s-4.3-4.9-4.6-4c0,0-5.1-9.9-5.1-9.9.8.1-1.3-5.4-.5-5.3,11.3,1.6,22.8,2,34.1,3.2,4.5.5,9,1.2,13.5,2.1,13.9,2.7,27.7,7.1,40.9,12.7,9.4,3.9,18.5,8.3,27.1,13.2s7.1,4.2,10.5,6.5c1.8,1.2,3.3,2.7,5.2,3.8s.4,1.4.4,2.5-.4,1.7-.4,1.7c-3.4.9-6.7,1.6-10.1,2.2-2.6.4-5.3.8-7.9,1.2-12.4,1.5-25.3,2-38.1,1.5-15.5-.6-31-2.9-45.6-7.2-11.3-3.3-22.3-7.6-33.7-10.7s-23.1-6.9-25.6-7.5c11.2-20.4,27.4-50.6,39.1-70.9s13.4-24.3,20.5-36.8c7-12.5,13.9-25,21-36.5s.7-.2.9-.4Z"/>
      <path class="st1" d="M2052.8,29.5c-.3.8,2.1,2.9,1.8,3.8h0c-8.5,27-18,55.3-27.6,83.2-2,5.7-3.9,11.3-5.9,16.9-6.8,19.3-14.2,40.7-21.4,59.3-.7,1.9-4.5-2.1-5.2-.3,0,0-6.1-11.7-6.1-11.7,1.7.3.8-4.3,2.4-4.1,13.3,2,26.8,2.8,40.2,4.5,5.3.7,10.6,1.5,15.9,2.6,16.4,3.3,32.7,8.2,48.4,14.2,11.2,4.2,22.1,9,32.6,14.3s8.6,4.5,12.8,7c2.2,1.3,4.2,2.8,6.4,4s.9,1.5,1.2,2.5c-.1.6-.4,2-.4,2-3.9.8-7.8,1.4-11.8,1.8-3,.3-6.1.6-9.2.9-14.5,1-29.2,1.1-44,.2-17.9-1.1-35.6-3.8-52.7-8.4-13.6-3.6-27.1-8.3-40.7-12s-25.8-7.4-30.8-8.6c10.3-18.9,29.5-55.5,40.2-74.8,8.5-15.3,17-32.1,25.9-48.8,8.9-16.6,17.5-33.5,26.5-48.4s1.1,0,1.3-.1Z"/>
      <path class="st1" d="M2008.3,30.9c-.5,1.3,1.3,3.6.8,4.8h0c-10.3,30.9-21.6,63.3-33.1,95.3-2.3,6.5-4.7,13-7,19.4-8.2,22.4-16.9,46.6-25.3,68.1s-4.8.7-5.9,3.5c0,0-7-13.5-7-13.5,2.5.4,2.9-3.2,5.4-2.8,15.3,2.3,30.9,3.6,46.2,5.8,6.1.9,12.2,1.9,18.3,3.1,18.9,3.9,37.7,9.3,56,15.7,12.9,4.6,25.7,9.7,38,15.3s10.1,4.8,15.1,7.4c2.6,1.4,5,2.9,7.7,4.2s1.4,1.5,2.1,2.6c0,.5-.5,2.4-.5,2.4-4.5.7-8.9,1.1-13.4,1.4s-7,.4-10.4.6c-16.5.6-33.2.2-49.9-1.2-20.2-1.6-40.3-4.7-59.8-9.5-16-4-31.8-9.1-47.8-13.3s-28.4-7.9-35.9-9.6c9.4-17.5,31.5-60.6,41.3-78.7s20.6-39.9,31.4-60.8c10.8-20.8,21.1-42,32-60.3,0-.2,1.6.3,1.7.2Z"/>
      <path class="st1" d="M1963.8,32.3c-.6,1.7.5,4.2-.1,5.9h0c-12,34.7-25.2,71.3-38.6,107.5-2.7,7.3-5.4,14.6-8.1,21.9-9.6,25.6-19.5,52.4-29.2,76.9-1.5,3.7-5,3.6-6.5,7.2,0,0-7.9-15.3-7.9-15.3,3.3.6,4.9-2.1,8.3-1.6,17.4,2.7,34.9,4.4,52.2,7.1,6.9,1,13.8,2.2,20.7,3.6,21.4,4.4,42.7,10.3,63.5,17.3,14.7,4.9,29.3,10.3,43.5,16.3s11.7,5.1,17.4,7.8,5.9,3.1,8.9,4.5,2,1.6,3,2.6c0,.4-.5,2.7-.5,2.7-5,.5-10.1.8-15.1,1s-7.8.2-11.7.3c-18.5.1-37.2-.7-55.8-2.5-22.5-2.1-45-5.6-66.9-10.7-18.4-4.3-36.6-9.8-54.9-14.6-9.9-2.6-31-8.4-41-10.7,8.6-16.1,33.4-65.6,42.4-82.6s24.1-47.7,36.9-72.7c12.8-25,24.7-50.4,37.5-72.2,0-.1,2,.6,2.1.4Z"/>
      <path class="st1" d="M1919.3,33.7c-.8,2.1-.2,4.9-1.1,7h0c-13.7,38.5-28.8,79.2-44.1,119.7-3.1,8.1-6.1,16.3-9.2,24.4-10.9,28.7-22.2,58.3-33.1,85.7-1.9,4.7-5.3,6.4-7.1,11,0,0-8.8-17.1-8.8-17.1,4.1.7,7-1,11.2-.4,19.4,3,38.9,5.3,58.3,8.3,7.7,1.2,15.4,2.6,23.1,4.2,23.9,5,47.7,11.4,71,18.8,16.5,5.3,32.9,11,48.9,17.4,6.6,2.6,13.2,5.3,19.7,8.2s6.7,3.2,10.1,4.7,2.6,1.6,3.8,2.6c0,.3-.6,3-.6,3-5.6.4-11.2.6-16.7.6s-8.6,0-13,0c-20.5-.3-41.1-1.6-61.7-3.8-24.9-2.6-49.7-6.5-74-11.9-20.8-4.6-41.3-10.6-62-16s-33.6-8.9-46.2-11.8c7.7-14.7,35.3-70.7,43.5-86.5,13.6-26,27.7-55.5,42.3-84.7,14.7-29.2,28.3-58.9,43-84.1s2.4.8,2.5.7Z"/>
      <path class="st1" d="M1874.7,35.1c-1,2.5-1,5.5-2,8.1h0c-15.5,42.3-32.4,87.2-49.5,131.9-3.4,9-6.9,17.9-10.3,26.9-12.3,31.8-24.9,64.1-37,94.4s-5.5,9.2-7.7,14.7c0,0-9.8-18.9-9.8-18.9,5,.9,9.1,0,14.1.9,21.4,3.4,42.9,6.1,64.3,9.6,8.5,1.4,17,2.9,25.5,4.7,26.4,5.6,52.7,12.4,78.6,20.3,18.3,5.6,36.5,11.7,54.3,18.4,7.4,2.8,14.7,5.6,22,8.6s7.5,3.3,11.3,4.9,3.2,1.7,4.7,2.7c0,.2-.7,3.3-.7,3.3-6.2.3-12.3.3-18.4.3s-9.5-.2-14.2-.4c-22.5-.8-45.1-2.5-67.6-5.1-27.2-3.1-54.3-7.4-81.1-13.1-23.2-5-46.1-11.4-69-17.3s-36.3-9.4-51.3-12.9c6.8-13.3,37.2-75.8,44.7-90.4,15.1-29.7,31.2-63.3,47.8-96.7,16.6-33.3,31.9-67.3,48.5-96,0,0,2.8,1.1,2.9,1Z"/>
      <path class="st1" d="M1830.2,36.5c-1.1,3-1.8,6.2-2.9,9.2h0c-17.2,46.2-36,95.2-55,144.1-3.8,9.8-7.6,19.6-11.4,29.3-13.7,35-27.6,70-40.9,103.2-2.6,6.5-5.8,12-8.4,18.4,0,0-10.7-20.7-10.7-20.7,5.8,1,11.2,1.2,17,2.1,23.4,3.7,46.9,6.9,70.3,10.9,9.3,1.6,18.6,3.3,27.9,5.2,28.9,6.1,57.7,13.5,86.1,21.9,20.1,5.9,40.1,12.4,59.8,19.5,8.1,2.9,16.2,5.9,24.3,9.1s8.3,3.4,12.5,5.1,3.7,1.7,5.6,2.7c0,0-.7,3.6-.7,3.6-6.7.2-13.4,0-20.1-.1s-10.3-.4-15.5-.7c-24.5-1.3-49-3.4-73.5-6.4-29.6-3.6-59-8.3-88.2-14.2-25.6-5.2-50.8-12.1-76.1-18.6-17.3-4.4-38.9-9.9-56.4-14,6-11.8,39-80.8,45.8-94.4,16.6-33.4,34.8-71.1,53.3-108.6,18.5-37.5,35.6-75.7,54-108,0,0,3.2,1.3,3.3,1.3Z"/>
      <path class="st1" d="M1785.7,37.9c-20,52.9-42.1,109.8-64.4,166.5-22.3,56.7-45,113.4-66.3,166,0,0-11.6-22.4-11.6-22.4,42.1,7.3,84.7,12.5,126.5,21.3,31.4,6.8,62.7,14.6,93.6,23.4s61.6,18.8,91.8,30c6.7,2.6,13.5,5.2,20.2,8.1,0,0-.8,3.9-.8,3.9-7.3,0-14.5-.2-21.7-.5-32.2-1.6-64.2-4.5-96.1-8.6s-63.7-9.3-95.3-15.4c-28-5.6-55.6-12.8-83.2-20-19.8-5.1-41.5-10.5-61.5-15.1,5.1-10.4,40.9-85.9,46.9-98.3,18-37.1,38.3-78.9,58.7-120.6,20.4-41.7,41-83.2,59.6-119.9,0,0,3.7,1.6,3.7,1.6h0Z"/>
      <path class="st1" d="M1719,89.2c-11.3,30.2-23.3,61.7-35.6,93.7-8,20.8-16.1,41.8-24.3,62.8-4,10.3-8,20.5-12,30.7-14.9,37.9-30,75.9-44.4,111.7-1.7,4.3-3.6,8.1-5.6,11.8-.2-.5-10.7-20.7-10.9-21.1,2.3.1,4.6.4,7.1.8,37,6.2,74.4,10.5,111.2,18.4,29.5,6.3,58.8,13.8,87.7,22.2,27.7,8.1,55.1,17.2,82.1,27.4,1.2.5,2.5.9,3.7,1.4,5.2,2,10.3,4.1,15.4,6.3s2.1,1.1,3.1,1.6c0,0-.8,3.7-.8,3.7-6.8.1-13.6,0-20.3-.3s-14.1-.6-21.2-1.1c-23-1.4-46-3.5-68.9-6.3-29.9-3.7-59.7-8.3-89.3-14.2-26.4-5.2-52.5-12.3-78.6-19.1-7.7-2-15.7-4-23.8-6.1-10.7-2.7-24.1-6-34.4-8.4,5.9-11.9,38.7-80.7,45.4-94.3,17-34.7,35.9-73.5,55-112.2,4.4-8.9,8.8-17.9,13.2-26.7,13.8-27.8,27.8-55.7,40.5-80.7.6-1.3,1.4-2.5,2.2-3.7.1,0,3.4,1.5,3.4,1.5h0Z"/>
      <path class="st1" d="M1652.2,140.6c-10.5,28.4-21.6,57.9-32.9,87.8-7.4,19.5-15,39.2-22.6,58.8-3.7,9.6-7.4,19.2-11.1,28.7-13.7,35.2-27.8,71.1-41.2,104.5s-3.4,6.5-5.3,9.1c-.5-1-9.8-18.9-10.2-19.7,1.8-.2,3.7-.2,5.8.1,34.7,5.7,69.8,9.6,104.2,16.9,27.5,5.9,54.8,13,81.9,21,25.8,7.7,51.4,16.4,76.4,26.3,1.1.5,2.3.9,3.4,1.4,4.8,1.9,9.5,4,14.3,6.1s1.7,1.2,2.6,1.6c0,0-.7,3.4-.7,3.4-6.3.2-12.7.2-18.9,0-6.6-.2-13.2-.4-19.7-.8-21.5-1.1-42.9-2.9-64.3-5.4-27.9-3.2-55.7-7.5-83.3-12.9-24.9-4.9-49.4-11.7-74-18.2-7.3-1.9-14.8-3.9-22.4-5.8-9.2-2.3-23.5-5.9-32.4-8,6.6-13.3,36.4-75.5,43.8-90.3,16-32.3,33.5-68.1,51.2-103.8,4.1-8.3,8.2-16.5,12.4-24.7,12.7-25.4,26-51.6,37.8-74.6s1.3-2.1,2.1-3c.2,0,3.2,1.4,3.2,1.4h0Z"/>
      <path class="st1" d="M1585.4,191.9c-9.6,26.5-19.8,54-30.3,81.8-6.8,18.2-13.8,36.5-20.8,54.8-3.4,8.9-6.8,17.9-10.3,26.8-12.5,32.5-25.7,66.4-38.1,97.3-1.2,3-3.1,4.9-5,6.4-.7-1.4-8.9-17.2-9.5-18.3,1.3-.6,2.7-.8,4.5-.6,32.3,5.3,65.1,8.6,97.2,15.4s50.9,12.2,76,19.9c23.9,7.3,47.6,15.7,70.7,25.2,1.1.4,2.1.9,3.2,1.3,4.4,1.9,8.8,3.9,13.2,5.9s1.4,1.4,2.1,1.7c0,0-.7,3.2-.7,3.2-5.9.3-11.7.3-17.6.3s-12.2-.2-18.3-.5c-19.9-.8-39.8-2.3-59.7-4.4-25.9-2.8-51.8-6.7-77.3-11.7-23.4-4.6-46.3-11.1-69.3-17.4-6.8-1.8-13.9-3.7-21-5.5s-23-5.8-30.4-7.6c7.4-14.8,34.2-70.3,42.3-86.4,15-29.8,31.1-62.7,47.5-95.3,3.8-7.6,7.6-15.2,11.5-22.7,11.7-23,24.3-47.5,35.1-68.5s1.3-1.6,2.1-2.4c.3.1,2.9,1.3,2.9,1.3h0Z"/>
      <path class="st1" d="M1518.6,243.2c-8.8,24.6-18.1,50.1-27.6,75.8-6.3,16.9-12.6,33.8-19,50.8-3.1,8.3-6.3,16.6-9.4,24.8-11.4,29.9-23.5,61.6-34.9,90.2-1,2.4-2.8,3.3-4.8,3.7-1-1.9-8-15.4-8.8-17,.8-.9,1.8-1.4,3.2-1.2,30,4.9,60.4,7.6,90.2,14,23.6,5.1,47,11.4,70.1,18.7,22.1,7,43.8,15,65,24.1,1,.4,1.9.8,2.9,1.3,4,1.8,8,3.8,12.1,5.7s1,1.5,1.6,1.7c0,0-.6,3-.6,3-5.4.4-10.8.5-16.2.6s-11.3,0-16.9-.2c-18.4-.4-36.8-1.7-55.1-3.5-23.9-2.4-47.8-5.8-71.4-10.4s-43.3-10.6-64.7-16.5c-6.4-1.8-13-3.5-19.6-5.2s-22.5-5.8-28.4-7.2c8.2-16.2,32-65.1,40.7-82.4,13.9-27.4,28.7-57.3,43.7-86.9,3.5-6.9,7-13.8,10.6-20.7,10.6-20.6,22.5-43.4,32.4-62.4s1.2-1.2,2.1-1.7c.4.2,2.7,1.2,2.7,1.2h0Z"/>
      <path class="st1" d="M1451.8,294.5c-7.9,22.7-16.3,46.2-25,69.8-5.7,15.6-11.4,31.2-17.2,46.7-2.8,7.6-5.7,15.3-8.5,22.9-10.2,27.2-21.4,56.8-31.8,83s-2.5,1.7-4.5,1c-1.2-2.4-7-13.6-8.1-15.6.3-1.3.8-2,1.9-1.9,27.7,4.5,55.8,6.6,83.2,12.5s43.1,10.6,64.2,17.5c20.2,6.6,40,14.2,59.3,22.9s1.7.8,2.6,1.2c3.7,1.7,7.2,3.7,11,5.5s.7,1.6,1.1,1.8c0,0-.6,2.7-.6,2.7-5,.5-9.9.7-14.8.8-5.1.1-10.3.2-15.5.1-16.8-.1-33.7-1-50.4-2.5-21.9-2-43.8-5-65.4-9.2-20.3-4-40.2-10-60.1-15.6-6-1.7-12-3.4-18.2-4.9s-21.9-5.7-26.3-6.7c9-17.7,29.7-59.9,39.2-78.4s26.3-51.9,40-78.5c3.2-6.2,6.5-12.5,9.7-18.7,9.5-18.2,20.8-39.3,29.7-56.3.3-.5,1.2-.8,2.1-1.1.5.2,2.4,1.1,2.4,1.1h0Z"/>
      <path class="st1" d="M1385,345.8c-7.1,20.9-14.6,42.3-22.3,63.9-5.1,14.2-10.3,28.5-15.4,42.7-2.5,7-5.1,14-7.6,20.9-9.1,24.5-19.2,52.1-28.6,75.8s-2.2,0-4.2-1.7c-1.5-2.9-6.1-11.9-7.4-14.2-.2-1.6-.1-2.6.6-2.5,25.3,4.1,51.1,5.6,76.2,11,19.7,4.3,39.2,9.8,58.3,16.3,18.3,6.2,36.3,13.4,53.7,21.8.8.4,1.6.8,2.4,1.2,3.3,1.7,6.5,3.6,9.8,5.2s.3,1.7.6,1.8c0,0-.5,2.5-.5,2.5-4.5.5-9,.9-13.4,1.1-4.7.2-9.3.4-14,.4-15.3.2-30.6-.4-45.8-1.6-19.9-1.6-39.8-4.1-59.4-7.9-18.8-3.7-37.1-9.4-55.5-14.8-5.5-1.6-11.1-3.2-16.8-4.6s-21.4-5.7-24.3-6.3c9.7-19.1,27.4-54.7,37.7-74.5,11.7-22.7,23.9-46.5,36.2-70.1,2.9-5.6,5.9-11.1,8.8-16.7,8.4-15.8,19-35.2,26.9-50.3.2-.4,1.1-.4,2-.4.7.3,2.2,1,2.2,1h0Z"/>
      <path class="st1" d="M1318.2,397.2c-6.2,19-12.9,38.4-19.6,57.9-4.5,12.9-9.1,25.9-13.6,38.7-2.3,6.3-4.5,12.7-6.8,18.9-7.9,21.8-17.1,47.3-25.5,68.7-.2.6-2.1-1.4-3.9-4.4s-5.4-10-6.6-12.9-1-3.2-.7-3.2c23,3.6,46.4,4.6,69.2,9.5,17.8,3.9,35.3,9,52.5,15.1,16.4,5.9,32.5,12.7,48,20.7s1.4.7,2.1,1.1c2.9,1.6,5.7,3.5,8.7,5s0,1.8.1,1.9c0,0-.5,2.2-.5,2.2-4,.6-8,1.1-12,1.4-4.2.3-8.4.6-12.6.7-13.7.5-27.5.2-41.2-.7-17.9-1.1-35.8-3.3-53.4-6.7-17.3-3.3-34-8.9-50.9-13.9-5.1-1.5-10.2-3-15.4-4.4s-20.9-5.6-22.3-5.9c10.5-20.6,25.1-49.5,36.1-70.5s21.5-41.1,32.5-61.7c2.6-4.9,5.3-9.8,7.9-14.7,7.3-13.5,17.2-31.1,24.2-44.2s1.1,0,2,.2,1.9.9,1.9.9h0Z"/>
      <path class="st1" d="M1251.4,448.5c-5.4,17.1-11.1,34.5-17,51.9-5.9,17.4-11.8,34.7-17.8,51.7-6.7,19.2-15.2,42.5-22.3,61.5,0,0-11.6-22.4-11.6-22.4,20.7,2.9,41.7,3.7,62.2,8.1,30.9,7,61.1,18,88.8,33.6,3.2,1.8,6.3,3.7,9.4,5.9l-.8,3.9c-7.3,1.5-14.5,2.1-21.8,2.7-28.2,1.7-56.4,0-84-5.2-20.5-4.1-40.2-11.7-60.3-17.1,0,0-20.3-5.5-20.3-5.5,11.3-22,22.8-44.3,34.6-66.5s23.7-44.3,35.8-65.9c6.3-11,15.1-27.2,21.5-38.1,0,0,3.7,1.6,3.7,1.6h0Z"/>
    </g>
    <g>
      <path class="st1" d="M2200.5,875.4c-20.4,13-42.2,25.8-63.1,37.8-11.8,6.8-26.5,14.8-38.5,21.2,0,0,6.8-24.3,6.8-24.3,6.1,7.1,12.9,13.7,19.2,20.6,15.8,17.3,25.8,40.6,31.4,63.3,1.1,5.1,2.1,10.1,2.4,15.4,0,0-3.3,2.3-3.3,2.3-4.9-2-9.4-4.6-13.8-7.3-19.7-12.8-38.2-30-49.4-50.6-4.5-8.2-8.4-16.9-13.1-25,0,0-10.6-18.6-10.6-18.6,23.7-7.7,49.6-16.2,73.5-23.1,18.5-5.4,38.1-10.8,56.8-15.5,0,0,1.6,3.7,1.6,3.7h0Z"/>
      <path class="st1" d="M2007.2,892.5c11.9-3.9,32.7-11.4,45.4-15.5s29.3-9.7,43.8-14.3c22.7-7.2,46.6-14.5,68.8-20.7,0,0,1.6,3.7,1.6,3.7h0c-24.7,14.7-51.2,29.5-77,43.6-14.8,8-31.8,17.4-46.7,24.7s.7-13.8-1.1-13c0,0,2-7,2.2-7.9.7.1,1.3.3,1.9.9,6.7,7.7,13.7,15.1,20.4,22.8,6.1,7,11.7,14.6,16.7,22.7,10.1,16.3,18.1,34.2,23.8,52.2s2.5,12.1,4.5,18-2.4,2.8-2.2,3.2c-1.3,0-2.6-.3-3.8-.5-1.7-.3-3.5-.4-5.1-1.1s-1.2-.2-1.5-.4c-2.5-1.7-4.8-3.6-7.2-5.4-20.8-16.5-39.9-36.5-53.4-59.3-6-10.1-11.2-20.8-17.3-30.8s-12.2-20.8-13.6-22.9Z"/>
      <path class="st1" d="M1945.8,874.7c11.8-4,40.7-14.7,53.4-19s34.2-11.9,51.5-17.6c27-9,56-15.7,80.8-26,0,0,1.6,3.7,1.6,3.7h0c-29,16.5-60.3,33.3-90.9,49.4-17.7,9.3-37.3,19.7-55,28.2s-3.6-9.9-7.2-8.2c0,0,2.1-7.4,2.6-9.2.7-.5,1.4-.7,1.9-.2,7.7,9,15.6,18,23.3,27.1,7.1,8.3,13.6,17.2,19.6,26.5,12.1,18.9,22.2,39.3,30.1,60s4.1,13.8,6.7,20.6-1.6,3.3-1.2,4.1c-.8.6-1.5,1.1-2.3,1.6-1,.7-2,1.3-3.1,1.9-.3-.2-1.5.2-1.8,0-2.9-2.1-5.6-4.5-8.3-6.8-24.3-20.8-46.5-45.1-63.4-72-7.5-12-14.1-24.6-21.6-36.6s-13.8-23-16.6-27.2Z"/>
      <path class="st1" d="M1884.5,856.9c11.6-4,48.7-18,61.4-22.5,19-6.7,39.1-14,59.2-20.9,31.2-10.9,63.6-21.9,92.8-31.2,0,0,1.6,3.7,1.6,3.7h0c-33.3,18.2-69.3,37-104.7,55.2-20.6,10.5-42.8,21.9-63.2,31.7s-7.9-5.9-13.3-3.4c0,0,2.2-7.9,3-10.6.8-1.1,1.5-1.8,1.9-1.3,8.8,10.4,17.6,20.8,26.3,31.3,8,9.6,15.6,19.7,22.5,30.3,14.1,21.5,26.2,44.4,36.3,67.7s5.7,15.5,8.9,23.2-.8,3.8-.2,4.9c-.3,1.2-.5,2.4-.7,3.6s-.6,3.2-1,4.8c-.3-.2-1.8.6-2,.4-3.4-2.4-6.4-5.4-9.5-8.2-27.7-25-53.1-53.5-73.4-84.7-9-13.8-17.1-28.4-25.9-42.4s-15.4-25.1-19.6-31.6Z"/>
      <path class="st1" d="M1823.1,839.1c11.5-4,56.7-21.4,69.4-25.9,21.3-7.6,44.1-16.1,66.9-24.3,35.4-12.7,72.1-25.6,104.8-36.5,0,0,1.6,3.7,1.6,3.7h0c-37.6,20-78.4,40.8-118.6,61-23.5,11.8-48.4,24.2-71.5,35.2-7.4,3.5-12.3-2-19.4,1.3,0,0,2-8.4,3.4-11.9s1.6-2.8,1.9-2.5c9.9,11.7,19.5,23.7,29.2,35.6,8.9,10.9,17.5,22.3,25.4,34.1,16.1,24.1,30.3,49.5,42.5,75.5s7.2,17.2,11.1,25.7.3,4.1.8,5.8.5,3.8.8,5.6.8,5.2,1,7.8c-.2-.1-2.1.9-2.3.8-3.9-2.8-7.2-6.3-10.7-9.6-31.2-29.2-59.6-62-83.4-97.4-10.6-15.7-20-32.2-30.1-48.2s-16.9-27.3-22.6-35.9Z"/>
      <path class="st1" d="M1761.7,821.3c11.3-4.1,64.6-24.7,77.4-29.4,23.6-8.6,49-18.2,74.6-27.6,39.6-14.5,80.6-29.3,116.8-41.7,0,0,1.6,3.7,1.6,3.7h0c-41.9,21.8-87.4,44.5-132.5,66.7-26.5,13-53.9,26.5-79.8,38.8-9.3,4.4-16.6,1.9-25.6,6.1,0,0,2.2-8.8,3.7-13.2s1.7-3.9,1.9-3.6c10.9,13.1,21.5,26.6,32.2,39.9,9.8,12.3,19.4,24.8,28.2,37.9,18.1,26.7,34.4,54.7,48.7,83.2,4.7,9.3,8.8,18.9,13.3,28.3s1,4.7,1.8,6.7,1.6,5.1,2.4,7.6,2.1,7.1,3.1,10.8c-.2,0-2.4,1.3-2.5,1.1-4.4-3.2-8-7.3-11.9-11-34.6-33.4-66.2-70.5-93.5-110.1-12.1-17.5-23-35.9-34.4-54s-18.5-29.5-25.6-40.2Z"/>
      <path class="st1" d="M1700.3,803.5c11.2-4.1,72.6-28.1,85.4-32.9,25.9-9.6,53.9-20.3,82.3-30.9,43.8-16.3,89.1-33,128.8-47,0,0,1.6,3.7,1.6,3.7h0c-46.3,23.5-96.5,48.3-146.3,72.5-29.4,14.3-59.4,28.8-88,42.3-11.1,5.2-20.9,5.9-31.7,10.9,0,0,2.4-9.3,4.1-14.6s1.8-5,1.9-4.8c12,14.5,23.4,29.4,35.1,44.1,10.8,13.6,21.3,27.3,31.1,41.6,20.1,29.3,38.4,59.8,54.9,91,5.4,10.2,10.3,20.6,15.4,30.9s1.7,5.2,2.8,7.6,2.6,6.4,3.9,9.7,3.5,9.1,5.1,13.7c-.1,0-2.7,1.6-2.8,1.5-4.8-3.6-8.8-8.2-13.1-12.4-38.1-37.6-72.8-79-103.5-122.8-13.6-19.4-25.9-39.7-38.6-59.8-8.2-13-20.1-31.6-28.6-44.5Z"/>
      <path class="st1" d="M1638.9,785.7c11-4.1,80.6-31.5,93.3-36.3,28.1-10.7,58.8-22.4,90-34.2,48.1-18.2,97.6-36.6,140.9-52.2,0,0,1.6,3.7,1.6,3.7h0c-50.6,25.3-105.5,52.1-160.2,78.3-32.3,15.5-64.9,31-96.3,45.8-13,6.1-25.2,9.8-37.8,15.7,0,0,2.6-9.7,4.5-15.9s1.9-6,2-5.9c13.1,15.8,25.4,32.3,38.1,48.4,11.7,14.9,23.3,29.9,34,45.4,22,31.8,42.5,64.9,61.2,98.7,6.1,11,11.9,22.2,17.6,33.5s2.5,5.7,3.9,8.4,3.7,7.8,5.4,11.7,4.9,11,7.2,16.7c0,0-3,2-3,1.9-5.3-4-9.7-9.1-14.3-13.8-41.5-41.9-79.3-87.5-113.5-135.5-15.1-21.3-28.9-43.5-42.9-65.6-9.7-15.1-21.6-33.8-31.7-48.8Z"/>
      <path class="st1" d="M1931.1,636.9c-101.6,50-219.5,106-322.5,153.8,0,0,6.8-24.3,6.8-24.3,25.8,34.1,53.3,66.9,77.9,101.9,36.6,52.8,70.2,108,99,165.5,3.2,6.5,6.3,13,9.2,19.7,0,0-3.3,2.3-3.3,2.3-5.3-5-10.5-10.1-15.5-15.2-44.8-46.2-85.7-96.2-123.5-148.2-16.6-23.2-31.8-47.3-47.2-71.4-11-17.2-23.2-36-34.7-53.1,10.8-4.1,88.5-34.9,101.3-39.8,77-29.7,173.4-66.7,250.6-95,0,0,1.6,3.7,1.6,3.7h0Z"/>
      <path class="st1" d="M1514.8,750.7c11.7-4.4,81.9-32.1,95.3-37.2,49.3-18.9,106.3-40.6,160.6-60.9,25.8-9.6,51.6-19.2,75-27.6,0,0,1.6,3.7,1.6,3.7h0c-54,26.9-112.7,55.4-171,83.2-34.6,16.5-69.6,33.1-103,48.7-9.3,4.3-18.1,7.2-26.9,10.5.1-.4,1.5-5.8,3.1-10.9s3.5-10.7,3.7-10.5c20.1,25.2,40.1,50.5,59.4,76.3,4.8,6.5,9.6,13,14.2,19.7,26.9,38.8,51.5,79.1,73.6,120.8,3,5.7,5.9,11.4,8.8,17.2s1.6,4.1,2.6,6c1.8,3.6,3.4,7.4,5.1,11.1,2.4,5.4,4.7,10.8,6.9,16.3,0,0-3,1.9-3.1,1.9-5.2-4.4-9.8-9.4-14.6-14.2-33-33.5-63.5-69.4-92-106.7-8.1-10.5-16-21.2-23.7-32-15.5-21.7-29.6-44.4-43.9-67-9.7-15.1-21.7-33.7-31.7-48.7Z"/>
      <path class="st1" d="M1452,733.6c12.5-4.7,75.2-29.3,89.2-34.5,46.5-17.5,99.6-37.8,150.4-56.5,23.8-8.8,48.5-17.8,70.3-25.5,0,0,1.6,3.7,1.6,3.7h0c-50.7,25.5-105.8,52.5-160.3,78.8-32.2,15.5-65.4,31.4-96.6,46s-15.1,4.6-22.3,6.4c.3-.9,1.4-5.9,2.9-10.2s3.5-8.7,3.8-8.2c18.9,23.6,37.9,47.2,55.9,71.5,4.5,6.1,8.9,12.3,13.2,18.5,25.1,36.5,47.9,74.6,68,114.1,2.7,5.4,5.3,10.8,8,16.3s1,3.8,1.7,5.5c1.3,2.9,2.3,5.9,3.4,8.8,1.6,4.3,3.2,8.6,4.6,13-.1-.1-2.7,1.5-2.9,1.4-4.8-4.1-9.2-8.7-13.7-13.1-30.9-31-59.4-64.4-86-99.2-7.5-9.8-14.8-19.8-21.9-29.9-14.3-20.3-27.3-41.6-40.6-62.6-8.3-12.9-20.2-31.5-28.8-44.3Z"/>
      <path class="st1" d="M1389.2,716.4c13.3-4.9,68.5-26.5,83.1-31.9,43.7-16.3,93-34.9,140.2-52.1,21.9-8,45.3-16.4,65.5-23.5,0,0,1.6,3.7,1.6,3.7h0c-47.5,24.2-98.9,49.6-149.6,74.3-29.9,14.5-61.2,29.6-90.2,43.3-6.6,3.1-12,2.1-17.7,2.4.4-1.3,1.3-6,2.7-9.6s3.4-6.6,4-5.9c17.8,22,35.7,43.9,52.5,66.7,4.2,5.7,8.3,11.5,12.3,17.4,23.3,34.3,44.3,70.1,62.4,107.3,2.5,5.1,4.7,10.2,7.1,15.3s.4,3.5.9,5c.8,2.1,1.1,4.4,1.7,6.6.8,3.2,1.6,6.4,2.3,9.6-.2-.2-2.5,1.1-2.7.9-4.5-3.8-8.6-8-12.7-12.1-28.9-28.6-55.4-59.4-80-91.7-6.9-9.1-13.6-18.4-20.1-27.8-13.1-19-25-38.7-37.4-58.2-6.9-10.8-18.7-29.2-25.8-39.9Z"/>
      <path class="st1" d="M1326.4,699.2c14.1-5.2,61.8-23.7,77-29.3,40.9-15.1,86.3-32,129.9-47.6,19.9-7.1,42.2-15.1,60.7-21.4,0,0,1.6,3.7,1.6,3.7h0c-44.2,22.9-92,46.8-138.9,69.8-27.5,13.5-56.9,27.9-83.8,40.6s-9-.5-13.2-1.7c.5-1.8,1.7-6,2.5-8.9,1.6-2.2,3.3-4.5,4.1-3.6,16.6,20.4,33.6,40.6,49.1,61.9s7.7,10.7,11.4,16.2c21.5,32,40.7,65.6,56.8,100.6,2.2,4.8,4.1,9.6,6.3,14.4s-.5,3.3,0,4.4c0,1.5,0,3,0,4.4,0,2.1,0,4.2,0,6.3-.3-.2-2.2.7-2.5.5-4.1-3.5-8-7.3-11.8-11.1-26.8-26.1-51.4-54.4-73.9-84.2-6.3-8.4-12.5-17-18.4-25.7-11.9-17.6-22.7-35.9-34.1-53.8-5.5-8.6-17.1-26.9-22.9-35.5Z"/>
      <path class="st1" d="M1263.6,682c14.9-5.5,55.1-20.9,70.9-26.7,38.1-13.9,79.6-29.1,119.7-43.2,18-6.3,39.1-13.7,56-19.3,0,0,1.6,3.7,1.6,3.7h0c-41,21.6-85.1,43.9-128.2,65.4-25.1,12.5-52.7,26.1-77.4,37.9s-6-3.1-8.6-5.8c.6-2.2,1.7-6,2.3-8.2,1.6-1.2,3.3-2.5,4.2-1.3,15.4,18.9,31.4,37.4,45.7,57.2s7,10,10.4,15.1c19.7,29.8,37.1,61.1,51.2,93.8s3.4,9,5.4,13.5-1.2,3.1-.8,3.9c-.6.8-1.1,1.5-1.7,2.2-.8,1-1.6,2-2.4,2.9-.4-.3-1.9.3-2.3,0-3.8-3.2-7.3-6.6-10.9-10-24.7-23.7-47.4-49.4-67.9-76.7-5.8-7.7-11.3-15.7-16.6-23.7-10.7-16.2-20.4-33-30.9-49.4s-15.6-24.7-19.9-31.1Z"/>
      <path class="st1" d="M1200.9,664.8c15.8-5.7,48.4-18.1,64.9-24,35.3-12.7,72.9-26.3,109.5-38.8,16-5.4,35.9-12.3,51.2-17.3,0,0,1.6,3.7,1.6,3.7h0c-37.7,20.3-78.2,41-117.5,60.9-22.7,11.5-48.5,24.4-71,35.2s-3-5.7-4-9.9c.8-2.7,1.7-6.1,2.1-7.6,1.6-.2,3.2-.4,4.3,1,14.2,17.3,29.2,34.1,42.2,52.4s6.4,9.2,9.5,13.9c17.9,27.5,33.5,56.6,45.6,87s2.8,8.4,4.6,12.6-1.9,2.8-1.6,3.4c-1.2,0-2.3,0-3.4,0-1.6,0-3.1-.2-4.7-.4-.4-.3-1.7,0-2.1-.4-3.4-2.9-6.7-5.9-10-9-22.6-21.2-43.4-44.4-61.8-69.2-5.2-7-10.1-14.3-14.9-21.6-9.5-14.8-18.2-30.2-27.6-45s-14.1-22.4-17-26.7Z"/>
      <path class="st1" d="M1138.1,647.6c16.6-6,41.7-15.4,58.8-21.4,32.5-11.6,66.2-23.5,99.3-34.4s32.8-11,46.5-15.2c0,0,1.6,3.7,1.6,3.7h0c-34.5,19-71.2,38.1-106.8,56.4-20.4,10.4-44.2,22.6-64.7,32.4-1.3.6-.5-8.4.5-14s1.7-6.2,1.9-6.9c1.5.8,3.1,1.6,4.4,3.2,13.1,15.7,27.1,30.8,38.8,47.6s5.8,8.5,8.5,12.8c16.1,25.2,29.9,52.1,40,80.3,1.4,3.8,2.2,7.8,3.7,11.7s-2.6,2.6-2.4,2.8c-1.7-.7-3.4-1.5-5.1-2.3-2.4-1.2-4.8-2.3-7-3.7s-1.4-.5-1.9-.9c-3.1-2.6-6.1-5.3-9-8-20.6-18.8-39.3-39.4-55.8-61.7s-8.9-12.9-13.1-19.5c-8.4-13.4-15.9-27.3-24.3-40.6-1.4-2.2-12.6-20.2-14-22.3Z"/>
      <path class="st1" d="M1260.4,572.1c-31.2,17.6-64.3,35.3-96.1,52-18,9.4-40.1,20.6-58.3,29.7,0,0,6.8-24.3,6.8-24.3,13.1,16.2,28,31.2,39.9,48.3,17.8,26.2,32.3,54.9,42,85.2,1.1,3.5,2.1,7,2.9,10.7,0,0-3.3,2.3-3.3,2.3-6.3-3.9-12.1-8.3-17.8-12.9-21.7-18-41.2-38.5-57.9-61.1-12.2-17-21.4-35.9-32.4-53.7,0,0-11.1-17.9-11.1-17.9,46.5-16.8,94.7-33.7,141.8-48.8,12.1-3.8,29.6-9.6,41.7-13.1,0,0,1.6,3.7,1.6,3.7h0Z"/>
    </g>
    <g>
      <path class="st1" d="M1872.8,1535.8c-23.9-3.5-48.8-8-72.5-12.5-13.4-2.6-29.7-6.1-43-9,0,0,21.1-14,21.1-14,0,9.4.9,18.8,1.2,28.2.6,23.5-6.9,47.6-17.5,68.5-2.5,4.6-5,9-8.3,13.3,0,0-4-.4-4-.4-2.4-4.8-4.1-9.6-5.7-14.6-6.6-22.5-9.4-47.6-4.4-70.6,2-9.2,4.6-18.3,6.4-27.5,0,0,4.1-21.1,4.1-21.1,23,9.6,48.2,20,70.8,30.5,17.6,8,35.9,16.6,53.2,25.3,0,0-1.2,3.8-1.2,3.8h0Z"/>
      <path class="st1" d="M1715.1,1422.7c11.8,4.9,32.6,12.9,45.1,18.1s27.9,11.5,41.5,17.3c21.8,9.3,44.1,20.1,65.4,29,.3.1.3,1.4.1,2.4s-.5,1.7-.5,1.7h0c-28.8-5.1-59-11.3-88.2-17.5-16.7-3.6-36.1-7.7-52.4-12s5.5-5.9,4.3-6.2c0,0,9.2-6.1,9.2-6.1,0,.6,3.8-1.4,3.8-.7-.4,11.5.5,23,.5,34.4,0,5.1-.2,10.2-.7,15.3-2.2,23.8-8.9,47.6-18.2,69.3s-3.5,7.7-5.4,11.4c-1,1.8-2.3,3.5-3.1,5.5s-1.4.6-2.5.6-1.7-.2-1.7-.2c-1.3-3.2-2.3-6.5-3.3-9.8-.7-2.6-1.4-5.1-2-7.7-6.3-27-8.4-56.4-3.4-83.8,2.1-11.6,5.1-23,6.9-34.6s4.3-23.7,4.6-26.3Z"/>
      <path class="st1" d="M1680.2,1369.2c11.7,4.7,40.8,15.6,53.4,20.6s32.7,13,49.1,19.7c26,10.6,52.7,22.6,77.5,32.7s.8,1.4,1,2.4c-.2.6-.6,2-.6,2h0c-33.6-6.6-69.3-14.6-103.9-22.6-20.1-4.7-42.3-9.8-61.8-14.9-2.4-.6,1.9-5.8-.5-6.5,0,0,10.9-7.3,10.9-7.3,0,1.2,3.2.3,3.1,1.5-.5,13.6.1,27.2,0,40.7,0,6-.4,12-1,18-2.7,28.1-9.6,56.3-19.4,82.5-1.7,4.7-3.6,9.3-5.6,13.8-1,2.3-2.3,4.4-3.2,6.7s-1.4,1-2.4,1.5c-.6,0-2.1-.2-2.1-.2-1.2-3.8-2.2-7.6-3.1-11.5-.7-3-1.3-6-1.9-9-5.8-31.5-7.3-65.1-2.3-96.9,2.1-14,5.3-27.8,7.5-41.8s4.5-26.4,5.2-31.5Z"/>
      <path class="st1" d="M1645.2,1315.7c11.5,4.6,48.9,18.2,61.6,23.2,18.2,7.2,37.6,14.5,56.7,22.1,30.3,11.9,61.4,25.1,89.7,36.5.8.3,1.3,1.4,1.9,2.4-.1.5-.7,2.3-.7,2.3h0c-38.5-8.2-79.5-17.9-119.5-27.6-23.4-5.7-48.6-11.8-71.1-17.9s-1.6-5.8-5.2-6.8c0,0,12.6-8.4,12.6-8.4-.1,1.9,2.6,1.9,2.5,3.7-.7,15.6-.3,31.4-.7,47-.2,6.9-.6,13.9-1.3,20.8-3.1,32.5-10.4,65-20.5,95.7s-3.7,10.9-5.8,16.2c-1,2.7-2.3,5.2-3.3,7.9s-1.4,1.6-2.4,2.4c-.5,0-2.4-.2-2.4-.2-1.2-4.4-2.1-8.8-2.9-13.2s-1.2-6.9-1.7-10.3c-5.3-36.1-6.2-73.9-1.3-110.1,2.2-16.4,5.6-32.6,8-49s4.8-29.1,5.7-36.7Z"/>
      <path class="st1" d="M1610.3,1262.2c11.4,4.5,57.1,20.8,69.8,25.7,20.5,7.9,42.4,16,64.4,24.4,34.5,13.3,70,27.7,101.9,40.2s1.9,1.5,2.8,2.4c-.1.4-.8,2.6-.8,2.6h0c-43.3-9.8-89.8-21.2-135.2-32.7-26.7-6.8-54.8-13.9-80.5-20.9-4.9-1.3-5.2-5.7-9.9-7.1,0,0,14.3-9.5,14.3-9.5-.2,2.5,1.9,3.5,1.8,6-.8,17.7-.7,35.6-1.3,53.3-.3,7.9-.8,15.7-1.6,23.6-3.6,36.9-11.1,73.7-21.6,108.9-1.9,6.3-3.8,12.5-6,18.6s-2.4,6.1-3.4,9.2-1.4,2.2-2.3,3.3c-.4,0-2.7-.3-2.7-.3-1.1-5-1.9-9.9-2.7-14.9s-1.1-7.7-1.5-11.6c-4.7-40.6-5.2-82.6-.3-123.3,2.3-18.8,5.8-37.4,8.6-56.2s5-31.7,6.2-41.9Z"/>
      <path class="st1" d="M1575.4,1208.7c11.3,4.3,65.3,23.5,78.1,28.3,22.7,8.6,47.3,17.5,72,26.8,38.7,14.6,78.6,30.2,114.1,43.9,1.3.5,2.5,1.5,3.7,2.4,0,.3-.9,2.9-.9,2.9h0c-48.1-11.4-100-24.5-150.9-37.7-30.1-7.8-61.1-15.9-89.9-23.9s-8.7-5.7-14.7-7.3c0,0,16-10.6,16-10.6-.2,3.1,1.3,5.1,1.1,8.2-1,19.8-1.1,39.8-2,59.6-.4,8.8-1,17.6-1.8,26.4-4.1,41.3-11.9,82.4-22.8,122.2s-4,14.1-6.2,21-2.4,6.9-3.5,10.4-1.4,2.8-2.2,4.2c-.3,0-3-.3-3-.3-1-5.5-1.8-11-2.5-16.6s-1-8.6-1.4-12.9c-4.2-45.1-4.1-91.4.8-136.5,2.3-21.2,6-42.2,9.1-63.3s5.2-34.4,6.7-47.2Z"/>
      <path class="st1" d="M1540.5,1155.1c11.2,4.2,73.5,26.1,86.3,30.8,25,9.2,52.2,19.1,79.6,29.2,43,15.9,87.2,32.7,126.3,47.6,1.6.6,3.1,1.5,4.6,2.4,0,.2-1,3.2-1,3.2h0c-53-13-110.2-27.8-166.6-42.7-33.4-8.9-67.3-17.9-99.2-26.8-7.3-2-12.3-5.6-19.4-7.6,0,0,17.7-11.7,17.7-11.7-.2,3.7.7,6.7.5,10.5-1.1,21.9-1.4,43.9-2.6,65.9-.5,9.7-1.2,19.4-2.1,29.1-4.6,45.6-12.7,91.1-23.9,135.4-2,7.8-4.1,15.7-6.4,23.4s-2.4,7.7-3.6,11.6-1.4,3.4-2.2,5.1c-.2,0-3.3-.3-3.3-.3-.9-6.1-1.7-12.2-2.3-18.3s-.8-9.5-1.2-14.2c-3.6-49.7-3-100.1,1.8-149.7,2.4-23.6,6.3-47,9.7-70.5,2.2-15.2,5.4-37.1,7.3-52.4Z"/>
      <path class="st1" d="M1505.5,1101.6c11,4.1,81.7,28.7,94.5,33.4,27.3,9.9,57,20.6,87.2,31.6,47.2,17.2,95.8,35.2,138.4,51.4s3.7,1.6,5.5,2.4c0,0-1.1,3.5-1.1,3.5h0c-57.8-14.6-120.5-31.1-182.3-47.8-36.7-9.9-73.6-20-108.6-29.8-8.5-2.4-15.8-5.5-24.1-7.9,0,0,19.4-12.9,19.4-12.9-.3,4.4,0,8.4-.2,12.7-1.2,24-1.8,48.1-3.2,72.2-.6,10.6-1.3,21.3-2.4,31.9-5,50-13.4,99.8-25,148.6-2.1,8.6-4.2,17.2-6.5,25.8s-2.4,8.5-3.7,12.8-1.3,4-2.1,6c0,0-3.7-.3-3.7-.3-.9-6.7-1.5-13.3-2-19.9s-.7-10.3-1-15.5c-3.1-54.2-2.1-108.9,2.9-162.9,2.4-26,6.5-51.8,10.2-77.7,2.5-17.7,5.6-39.7,7.8-57.6Z"/>
      <path class="st1" d="M1824.1,1179.3c-109.6-28.3-235.6-62.8-344.7-93.7,0,0,21.1-14,21.1-14-2.7,42.7-3.2,85.5-7.4,128.1-6.7,63.9-17.2,127.6-32.9,190.1-1.8,7-3.7,14-5.8,20.9,0,0-4-.4-4-.4-.8-7.2-1.4-14.4-1.8-21.6-3.8-64.3-2.3-128.8,3.1-192.9,2.5-28.4,6.7-56.6,10.8-84.8,2.9-20.3,5.9-42.4,8.3-62.8,10.9,3.9,89.9,31.3,102.8,35.9,77.8,27.7,175,62.5,251.9,91.4,0,0-1.2,3.8-1.2,3.8h0Z"/>
      <path class="st1" d="M1434.2,994.1c11.7,4.3,83,29.1,96.5,34,48.9,17.6,105.4,37.9,159,57.7,25.5,9.4,51.1,19,74.2,27.7,1,.4,2,.9,3,1.4,0,.1-1.1,3.6-1.1,3.6h0c-61.6-15.7-128.4-33.4-193.9-51.2-39.3-10.7-78.7-21.6-115.8-32-4.4-1.2-8.4-2.7-12.3-4.3.4-.3,19.4-12.9,19.8-13.1.1,2.3.1,4.6,0,7.1-2.1,37.5-2.4,75.1-6.2,112.5-6,58.7-16.1,117.1-30.8,174.2-.3,1.3-.7,2.6-1,3.8-1.4,5.4-3,10.7-4.6,16s-.9,2.2-1.2,3.3c0,0-3.7-.4-3.7-.4-.8-6.8-1.5-13.5-2-20.2s-.9-14.1-1.3-21.2c-2.6-53.2-1.4-106.5,3.2-159.5,2.3-26.9,6.5-53.5,10.4-80.2,1.1-7.9,2.3-16,3.4-24.3,1.5-10.9,3.3-24.6,4.6-35.1Z"/>
      <path class="st1" d="M1397.9,940.2c12.5,4.6,76.2,26.9,90.3,32,46,16.8,98.6,35.8,148.7,54.5,23.5,8.8,47.9,18,69.3,26.2s1.7.9,2.5,1.4c0,.2-1.1,3.4-1.1,3.4h0c-57.8-14.4-120.3-30.8-181.5-47.2-36.5-9.8-73.7-19.9-108.4-29.6-3.8-1.1-6.8-2.6-9.6-4.3.9-.6,17.7-11.8,18.5-12.3.4,1.8.6,3.6.5,5.7-1.9,35.1-1.9,70.4-5.5,105.4-5.6,54.8-15.4,109.3-29.8,162.5-.3,1.2-.6,2.4-1,3.6-1.4,5-3,9.9-4.5,14.9s-1.1,1.8-1.3,2.8c0,0-3.5-.3-3.5-.3-.9-6.3-1.5-12.6-2.1-18.8s-1-13.1-1.4-19.7c-2.9-49.5-2.1-99.3,2.1-148.7,2.2-25.3,6.3-50.4,10.1-75.5,1.1-7.4,2.2-15.1,3.3-22.9,1.3-9.4,3.3-24,4.4-33Z"/>
      <path class="st1" d="M1361.5,886.2c13.4,5,69.3,24.7,84,30.1,43.2,16,91.9,33.7,138.3,51.3,21.6,8.2,44.6,17.1,64.5,24.7.7.3,1.3.9,2,1.5-.1.4-1,3.1-1,3.1h0c-54-13.2-112.2-28.2-169-43.2-33.7-8.9-68.8-18.3-100.9-27.3-3.2-.9-5.2-2.5-6.9-4.3,1.3-.9,16.1-10.7,17.2-11.4.7,1.2,1.1,2.6,1,4.4-1.8,32.7-1.4,65.6-4.8,98.3-5.2,50.9-14.7,101.5-28.8,150.7-.3,1.1-.6,2.2-1,3.3-1.4,4.6-2.9,9.1-4.4,13.8s-1.2,1.5-1.4,2.3c0,0-3.2-.3-3.2-.3-.9-5.8-1.6-11.6-2.2-17.4s-1.1-12.2-1.5-18.3c-3.2-45.9-2.8-92.1,1.1-138,2-23.8,6-47.3,9.7-70.8,1.1-7,2.2-14.2,3.2-21.4s3.3-23.5,4.2-31Z"/>
      <path class="st1" d="M1325.1,832.2c14.2,5.3,62.5,22.4,77.7,28.1,40.4,15.1,85.2,31.6,128,48,19.6,7.5,41.4,16.2,59.6,23.2.6.2,1,.9,1.4,1.5-.2.5-.9,2.9-.9,2.9h0c-50.3-11.9-104.1-25.6-156.6-39.2-30.9-8.1-63.8-16.7-93.4-24.9-2.5-.7-3.6-2.4-4.2-4.3,1.8-1.2,14.4-9.6,15.9-10.6,1,.7,1.6,1.6,1.6,3-1.6,30.4-.9,60.9-4.1,91.2-4.9,47-14,93.8-27.8,139-.3,1-.6,2-.9,3-1.3,4.2-2.9,8.4-4.3,12.6s-1.4,1.2-1.5,1.8c0,0-3-.3-3-.3-1-5.3-1.7-10.7-2.3-16s-1.2-11.2-1.7-16.8c-3.6-42.3-3.5-84.9,0-127.2,1.9-22.2,5.8-44.2,9.3-66.1,1-6.6,2.1-13.3,3-20s3.3-23,4-29Z"/>
      <path class="st1" d="M1288.7,778.2c15,5.6,55.6,20.2,71.5,26.2,37.5,14.2,78.4,29.5,117.6,44.8,17.6,6.9,38.2,15.2,54.8,21.7.4.2.7.9.9,1.6-.2.6-.8,2.7-.8,2.7h0c-46.5-10.7-96-23-144.1-35.2-28.1-7.2-58.8-15.1-86-22.5s-1.9-2.3-1.5-4.4c2.2-1.5,12.8-8.5,14.6-9.7,1.3.2,2.1.6,2.1,1.7-1.4,28-.5,56.1-3.4,84-4.5,43.1-13.2,86-26.8,127.2s-.6,1.8-.9,2.7c-1.3,3.8-2.9,7.6-4.2,11.5s-1.5.8-1.7,1.3c0,0-2.8-.3-2.8-.3-1-4.9-1.8-9.7-2.4-14.6-.7-5.1-1.3-10.2-1.8-15.4-3.9-38.7-4.2-77.7-.9-116.4,1.7-20.6,5.6-41,9-61.5,1-6.1,2-12.3,2.9-18.6s3.3-22.4,3.8-26.9Z"/>
      <path class="st1" d="M1252.3,724.2c15.8,6,48.8,17.9,65.2,24.2,34.7,13.3,71.7,27.4,107.3,41.6,15.6,6.3,35,14.3,49.9,20.2.3.1.4.9.4,1.7-.2.7-.8,2.5-.8,2.5h0c-42.7-9.5-87.9-20.4-131.6-31.2-25.3-6.3-53.9-13.5-78.5-20.2s-.3-2.2,1.2-4.4c2.7-1.8,11.1-7.4,13.4-8.9,1.6-.4,2.6-.4,2.6.3-1.3,25.6,0,51.4-2.7,76.9-4.1,39.2-12.5,78.3-25.7,115.5-.3.8-.6,1.7-.9,2.5-1.3,3.5-2.9,6.8-4.1,10.3s-1.7.5-1.8.8c0,0-2.5-.2-2.5-.2-1-4.4-1.8-8.8-2.6-13.2-.7-4.6-1.4-9.2-2-13.9-4.3-35-4.9-70.5-2-105.6,1.6-19.1,5.4-37.9,8.6-56.8,1-5.7,2-11.4,2.8-17.2s3.3-21.9,3.7-24.9Z"/>
      <path class="st1" d="M1215.9,670.2c16.6,6.3,41.9,15.7,59,22.3,31.9,12.3,65,25.2,96.9,38.4,13.7,5.6,31.8,13.4,45.1,18.7s.1.9,0,1.7-.7,2.2-.7,2.2h0c-38.9-8.2-79.9-17.8-119.2-27.3-22.6-5.5-48.9-11.9-71-17.8-.6-.2,1.2-2.3,3.9-4.4s9.4-6.5,12.1-8,3.1-1.4,3.1-1c-1.1,23.2.5,46.6-2,69.8-3.8,35.4-11.8,70.5-24.7,103.7-.3.7-.6,1.5-.9,2.2-1.2,3.1-2.8,6-4.1,9.2s-1.8.2-1.9.3c0,0-2.3-.2-2.3-.2-1.1-3.9-1.9-7.9-2.7-11.8-.8-4.1-1.5-8.3-2.1-12.4-4.6-31.4-5.6-63.3-3-94.9,1.4-17.5,5.1-34.8,8.3-52.1.9-5.2,1.9-10.5,2.7-15.8s3.3-21.3,3.5-22.8Z"/>
      <path class="st1" d="M1357.9,692.8c-35.2-7-71.8-15.2-106.7-23.3-19.8-4.6-43.9-10.5-63.6-15.5,0,0,21.1-14,21.1-14-.7,20.8.8,41.9-1.3,62.7-3.6,31.4-11.3,62.7-23.7,92-1.5,3.4-3,6.7-4.8,10,0,0-4-.4-4-.4-2.2-7.1-3.7-14.2-5-21.4-4.8-27.8-6.1-56.1-4-84.1,1.8-20.8,7.2-41.2,10.4-61.8,0,0,3.3-20.8,3.3-20.8,46.2,17.6,93.8,36.3,139.3,55.5,11.7,5.1,28.7,12,40.2,17.2,0,0-1.2,3.8-1.2,3.8h0Z"/>
    </g>
  </g>
</svg>